<svg width="99" height="38" viewBox="0 0 99 38" fill="none" xmlns="http://www.w3.org/2000/svg">
<g clip-path="url(#clip0_273_648)">
<path d="M35.8995 0.408906C37.3895 0.408906 38.8695 0.388906 40.3595 0.418906C40.7795 0.418906 41.1995 0.558906 41.6095 0.658906C42.4195 0.858906 43.1095 1.28891 43.7395 1.81891C44.2395 2.23891 44.6195 2.75891 44.9295 3.32891C45.2295 3.87891 45.5695 4.41891 45.8895 4.96891C46.2295 5.55891 46.5595 6.16891 46.8995 6.75891C47.3095 7.47891 47.7395 8.18891 48.1595 8.90891C48.5695 9.62891 48.9495 10.3489 49.3595 11.0689C49.6995 11.6689 50.0595 12.2489 50.3995 12.8489C50.8995 13.7189 51.3895 14.5889 51.8895 15.4489C52.2395 16.0589 52.5895 16.6589 52.9395 17.2589C53.3495 17.9789 53.7595 18.7089 54.1695 19.4289C54.5095 20.0289 54.8695 20.6289 55.2095 21.2289C55.5395 21.7989 55.8395 22.3889 55.8795 23.0689C55.9095 23.5489 55.9995 24.0289 55.9795 24.5089C55.9595 24.8989 55.8295 25.2889 55.7495 25.6789C55.5595 26.5289 55.0395 27.2189 54.6095 27.9489C54.1295 28.7789 53.6695 29.6189 53.1995 30.4489C52.8295 31.1089 52.4495 31.7789 52.0695 32.4389C51.6895 33.1089 51.2795 33.7689 50.9295 34.4589C50.6395 35.0189 50.2895 35.5189 49.7095 35.7589C49.2695 35.9389 48.7795 35.9089 48.3395 35.6389C47.8995 35.3789 47.6295 34.9689 47.3795 34.5489C46.9695 33.8389 46.5495 33.1189 46.1395 32.4089C45.8895 31.9689 45.6495 31.5189 45.3995 31.0789C45.0495 30.4489 44.6895 29.8089 44.3295 29.1789C43.9195 28.4589 43.5195 27.7289 43.1095 27.0089C42.8495 26.5489 42.5695 26.0889 42.3095 25.6289C41.9595 25.0089 41.6195 24.3889 41.2695 23.7789C40.9195 23.1589 40.5595 22.5489 40.2195 21.9289C39.8095 21.2089 39.4095 20.4789 38.9995 19.7589C38.5995 19.0489 38.1695 18.3589 37.7695 17.6489C37.4995 17.1789 37.2695 16.6989 37.0095 16.2289C36.6695 15.6189 36.3095 15.0189 35.9595 14.4089C35.5495 13.6889 35.1495 12.9689 34.7395 12.2489C34.4695 11.7789 34.1895 11.3289 33.9195 10.8589C33.5695 10.2489 33.2395 9.62891 32.8995 9.01891C32.4995 8.29891 32.0795 7.59891 31.6795 6.87891C31.4195 6.41891 31.1695 5.94891 30.9095 5.48891C30.6395 5.02891 30.3495 4.57891 30.0995 4.10891C29.8695 3.68891 29.6595 3.24891 29.4895 2.80891C29.3895 2.55891 29.3595 2.27891 29.3595 2.00891C29.3395 1.41891 29.7595 0.878906 30.3095 0.668906C30.7695 0.498906 31.2295 0.408906 31.7195 0.408906C33.1195 0.418906 34.5095 0.408906 35.9095 0.408906H35.8995ZM6.58952 37.0989C7.62952 37.0989 8.67952 37.0989 9.71952 37.0989C10.6095 37.0989 11.5095 37.1589 12.3695 36.8289C12.8595 36.6489 13.3295 36.4289 13.7795 36.1489C14.6295 35.6289 15.2095 34.8789 15.6895 34.0389C16.0995 33.3189 16.4995 32.5989 16.9195 31.8789C17.3495 31.1289 17.7995 30.3789 18.2395 29.6289C18.6595 28.8989 19.0695 28.1689 19.4895 27.4389C19.8295 26.8489 20.1695 26.2689 20.5095 25.6789C20.7695 25.2089 21.0095 24.7289 21.2795 24.2689C21.5395 23.8189 21.8195 23.3889 22.0795 22.9389C22.4895 22.2289 22.8895 21.5089 23.2895 20.7989C23.6395 20.1989 23.9995 19.6089 24.3395 19.0089C24.7595 18.2789 25.1695 17.5489 25.5795 16.8189C25.7795 16.4689 26.0195 16.1389 26.1795 15.7689C26.4695 15.0589 26.6795 14.3389 26.6495 13.5489C26.6195 12.9589 26.6795 12.3589 26.4495 11.8089C26.1595 11.1189 25.8195 10.4589 25.4695 9.79891C25.2195 9.32891 24.9195 8.88891 24.6495 8.42891C24.2395 7.70891 23.8495 6.98891 23.4495 6.26891C22.9495 5.38891 22.4495 4.51891 21.9395 3.64891C21.6795 3.20891 21.4195 2.75891 21.1095 2.34891C20.8695 2.01891 20.5495 1.76891 20.1195 1.69891C19.2695 1.54891 18.6995 1.96891 18.2695 2.62891C17.9795 3.05891 17.7395 3.52891 17.4795 3.97891C17.1295 4.56891 16.7795 5.15891 16.4395 5.75891C16.0195 6.48891 15.6195 7.22891 15.2095 7.96891C14.9495 8.43891 14.6895 8.90891 14.4295 9.36891C14.0295 10.0789 13.6195 10.7789 13.2095 11.4889C12.9095 12.0089 12.6195 12.5189 12.3195 13.0389C11.9995 13.5989 11.6995 14.1789 11.3795 14.7389C11.0395 15.3489 10.6795 15.9489 10.3295 16.5489C9.90952 17.2789 9.50952 18.0089 9.08952 18.7389C8.74952 19.3289 8.38952 19.9189 8.05952 20.5089C7.77952 20.9989 7.52952 21.4989 7.24952 21.9889C6.90952 22.5989 6.55952 23.1889 6.20952 23.7989C5.79952 24.5289 5.39952 25.2589 4.98952 25.9789C4.73952 26.4289 4.45952 26.8689 4.20952 27.3189C3.85952 27.9389 3.52952 28.5689 3.17952 29.1989C2.91952 29.6589 2.62952 30.1089 2.36952 30.5789C1.95952 31.2989 1.54952 32.0289 1.15952 32.7589C0.759523 33.4989 0.249523 34.1789 0.0395227 35.0189C-0.100477 35.5689 0.0295227 36.0189 0.339523 36.4289C0.749523 36.9689 1.38952 37.0889 1.99952 37.1089C3.51952 37.1489 5.03952 37.1189 6.55952 37.1189L6.58952 37.0989ZM65.2195 37.0989C66.6395 37.0989 68.0695 37.1089 69.4895 37.0989C69.9195 37.0989 70.3595 37.0489 70.7595 36.9389C71.2095 36.8089 71.6495 36.6089 72.0695 36.3789C72.7295 36.0189 73.3395 35.5789 73.7695 34.9389C74.0395 34.5289 74.2995 34.1189 74.5395 33.6989C74.9095 33.0689 75.2595 32.4289 75.6095 31.7989C75.9395 31.2089 76.2795 30.6289 76.6195 30.0389C77.0295 29.3389 77.4495 28.6589 77.8495 27.9589C78.2695 27.2389 78.6595 26.5089 79.0795 25.7889C79.5095 25.0389 79.9695 24.2889 80.3995 23.5389C80.8095 22.8189 81.1995 22.0889 81.6095 21.3789C81.9495 20.7789 82.3195 20.1889 82.6695 19.5889C83.2395 18.6089 83.7895 17.6189 84.3495 16.6389C84.5595 16.2689 84.7795 15.9089 84.9495 15.5189C85.1695 14.9789 85.2695 14.4089 85.2995 13.8289C85.3395 12.9589 85.2895 12.0989 84.9295 11.2989C84.6095 10.5789 84.1795 9.90891 83.7895 9.21891C83.4395 8.60891 83.0695 8.01891 82.7295 7.40891C82.3195 6.68891 81.9395 5.95891 81.5395 5.23891C81.1295 4.50891 80.6995 3.77891 80.2795 3.04891C79.9695 2.50891 79.6195 2.01891 79.0295 1.74891C78.6895 1.59891 77.9295 1.68891 77.6295 1.90891C77.0195 2.33891 76.7195 2.99891 76.3595 3.59891C75.9195 4.32891 75.5295 5.07891 75.0995 5.81891C74.7695 6.39891 74.4195 6.96891 74.0895 7.54891C73.6695 8.29891 73.2595 9.04891 72.8295 9.79891C72.4995 10.3889 72.1495 10.9689 71.8195 11.5589C71.3295 12.4489 70.8595 13.3489 70.3595 14.2289C69.9595 14.9389 69.5295 15.6289 69.1295 16.3389C68.7095 17.0789 68.2995 17.8189 67.8795 18.5589C67.5295 19.1889 67.1695 19.8289 66.8195 20.4589C66.5395 20.9489 66.2595 21.4289 65.9795 21.9189C65.6595 22.4789 65.3195 23.0389 64.9995 23.5989C64.5895 24.3289 64.1795 25.0689 63.7695 25.7989C63.4295 26.3889 63.0795 26.9789 62.7395 27.5789C62.3295 28.3089 61.9295 29.0489 61.5095 29.7789C61.1695 30.3789 60.8095 30.9789 60.4695 31.5789C60.0495 32.3089 59.6595 33.0489 59.2295 33.7789C58.8595 34.4189 58.6195 35.0689 58.7395 35.8189C58.7895 36.1189 58.9495 36.3589 59.1695 36.5589C59.6095 36.9489 60.1595 37.0889 60.7195 37.0889C62.2195 37.1089 63.7295 37.0889 65.2295 37.0889L65.2195 37.0989ZM60.7395 0.398906C59.1595 0.398906 57.5895 0.398906 56.0095 0.398906C55.1595 0.398906 54.2895 0.288906 53.4695 0.658906C53.0295 0.858906 52.7095 1.16891 52.6095 1.65891C52.4395 2.50891 52.8195 3.19891 53.2195 3.88891C53.6295 4.58891 54.0495 5.28891 54.4595 5.98891C54.8695 6.69891 55.2495 7.41891 55.6495 8.12891C55.9995 8.73891 56.3795 9.32891 56.7295 9.93891C57.2295 10.8089 57.6995 11.6789 58.1995 12.5489C58.5495 13.1589 58.9295 13.7689 59.2895 14.3689C59.5495 14.7989 59.9195 15.0989 60.3895 15.2189C61.1795 15.3989 61.8195 15.0889 62.2395 14.4289C62.7595 13.6189 63.1995 12.7689 63.6795 11.9289C64.0895 11.2189 64.5295 10.5189 64.9295 9.79891C65.3395 9.07891 65.7295 8.33891 66.1395 7.61891C66.4795 7.01891 66.8495 6.42891 67.1995 5.82891C67.6195 5.08891 68.0295 4.33891 68.4395 3.59891C68.7495 3.02891 68.9895 2.44891 68.9095 1.77891C68.8695 1.40891 68.4095 0.788906 68.0695 0.658906C67.5395 0.468906 66.9895 0.378906 66.4195 0.378906C64.5295 0.398906 62.6395 0.378906 60.7495 0.378906L60.7395 0.398906ZM95.4095 37.0889C96.0695 37.0889 96.7195 37.0889 97.3495 36.8189C97.9395 36.5589 98.3395 35.9189 98.2795 35.3489C98.2295 34.8889 98.0595 34.4189 97.8395 34.0089C97.3695 33.1189 96.8295 32.2689 96.3295 31.3889C95.9195 30.6689 95.5395 29.9389 95.1395 29.2189C94.7395 28.4989 94.3095 27.7989 93.9095 27.0889C93.4295 26.2489 92.9595 25.3989 92.4695 24.5489C92.1495 23.9989 91.8295 23.4489 91.4895 22.9189C91.2595 22.5689 90.8995 22.3289 90.5095 22.2389C89.8295 22.0789 89.2195 22.2989 88.7995 22.8789C88.5295 23.2589 88.2795 23.6589 88.0395 24.0689C87.5395 24.8989 87.0395 25.7389 86.5595 26.5789C86.1495 27.2989 85.7695 28.0289 85.3595 28.7389C85.0095 29.3489 84.6295 29.9389 84.2895 30.5489C83.8895 31.2589 83.4995 31.9689 83.1095 32.6789C82.6995 33.4189 82.1895 34.1089 81.9495 34.9489C81.7695 35.5589 82.0195 36.3289 82.5295 36.6589C83.0095 36.9689 83.5695 37.0789 84.1295 37.0789C86.1195 37.0789 88.1095 37.0789 90.0995 37.0789C91.8695 37.0789 93.6495 37.0789 95.4195 37.0789L95.4095 37.0889ZM31.4095 37.0889C33.1995 37.0889 34.9895 37.0889 36.7895 37.0889C37.4195 37.0889 38.0495 37.0989 38.6495 36.8289C39.4595 36.4489 39.8795 35.5589 39.5295 34.7389C39.2795 34.1389 38.9295 33.5789 38.6095 33.0089C38.2695 32.3989 37.9095 31.8089 37.5695 31.2089C37.2495 30.6389 36.9495 30.0589 36.6295 29.4889C36.2795 28.8689 35.9195 28.2689 35.5595 27.6489C35.1495 26.9289 34.7495 26.2089 34.3395 25.4989C33.9995 24.8989 33.6195 24.3089 33.3095 23.6889C32.9995 23.0889 32.6395 22.5389 32.0095 22.2989C31.6895 22.1789 31.2595 22.1689 30.9395 22.2789C30.3395 22.4989 29.9595 23.0289 29.6395 23.5689C29.2295 24.2889 28.8395 25.0089 28.4395 25.7289C27.9795 26.5389 27.5195 27.3389 27.0495 28.1489C26.5095 29.0689 25.9695 29.9989 25.4295 30.9189C25.0895 31.4989 24.7295 32.0689 24.3995 32.6689C24.0295 33.3489 23.6595 34.0389 23.3395 34.7589C23.1095 35.2789 23.1395 35.8289 23.4995 36.3089C23.9395 36.9089 24.5895 37.0689 25.2695 37.0789C27.3095 37.1089 29.3595 37.0789 31.3995 37.0789L31.4095 37.0889Z" fill="#E94142"/>
</g>
<defs>
<clipPath id="clip0_273_648">
<rect width="98.28" height="36.71" fill="white" transform="translate(0 0.398438)"/>
</clipPath>
</defs>
</svg>
