<svg width="1200" height="743" viewBox="0 0 1200 743" fill="none" xmlns="http://www.w3.org/2000/svg">
<g clip-path="url(#clip0_175_877)">
<path d="M284.161 347.218C336.827 347.218 379.521 304.524 379.521 251.858C379.521 199.192 336.827 156.498 284.161 156.498C231.495 156.498 188.801 199.192 188.801 251.858C188.801 304.524 231.495 347.218 284.161 347.218Z" fill="white"/>
<path d="M284.161 347.728C231.301 347.728 188.301 304.728 188.301 251.868C188.301 199.008 231.301 156.008 284.161 156.008C337.021 156.008 380.021 199.008 380.021 251.868C380.021 304.728 337.021 347.728 284.161 347.728ZM284.161 156.998C231.851 156.998 189.301 199.558 189.301 251.858C189.301 304.158 231.861 346.718 284.161 346.718C336.461 346.718 379.021 304.158 379.021 251.858C379.021 199.558 336.461 156.998 284.161 156.998Z" fill="#FB2938"/>
<path d="M284.16 502.927C217.1 502.927 154.05 476.807 106.63 429.397C59.2096 381.987 33.0996 318.927 33.0996 251.867C33.0996 184.807 59.2196 121.757 106.63 74.3369C154.04 26.9169 217.1 0.796875 284.16 0.796875C351.22 0.796875 414.27 26.9169 461.69 74.3269C509.11 121.737 535.22 184.797 535.22 251.857C535.22 318.917 509.1 381.967 461.69 429.387C414.28 476.807 351.22 502.917 284.16 502.917V502.927ZM284.16 1.79688C217.37 1.79688 154.57 27.8069 107.34 75.0369C60.1096 122.267 34.0996 185.067 34.0996 251.857C34.0996 318.647 60.1096 381.447 107.34 428.677C154.57 475.907 217.37 501.917 284.16 501.917C350.95 501.917 413.75 475.907 460.98 428.677C508.21 381.447 534.22 318.647 534.22 251.857C534.22 185.067 508.21 122.267 460.98 75.0369C413.75 27.8069 350.96 1.79688 284.16 1.79688Z" fill="#FB2938"/>
<path d="M661.8 641.677C594.74 641.677 531.69 615.557 484.27 568.147C436.85 520.727 410.74 457.677 410.74 390.617C410.74 323.557 436.86 260.507 484.27 213.087C531.68 165.667 594.74 139.557 661.8 139.557C728.86 139.557 791.91 165.677 839.33 213.087C886.75 260.507 912.86 323.557 912.86 390.617C912.86 457.677 886.74 520.727 839.33 568.147C791.91 615.567 728.86 641.677 661.8 641.677ZM661.8 140.547C595.01 140.547 532.21 166.557 484.98 213.787C437.75 261.017 411.74 323.817 411.74 390.607C411.74 457.397 437.75 520.197 484.98 567.427C532.21 614.657 595.01 640.667 661.8 640.667C728.59 640.667 791.39 614.657 838.62 567.427C885.85 520.197 911.86 457.397 911.86 390.607C911.86 323.817 885.85 261.017 838.62 213.787C791.39 166.557 728.59 140.547 661.8 140.547Z" fill="#FB2938"/>
<path d="M101.06 683.636C34 683.636 -29.05 657.516 -76.47 610.106C-123.88 562.686 -150 499.636 -150 432.576C-150 365.516 -123.88 302.466 -76.47 255.046C-29.06 207.626 34 181.516 101.06 181.516C168.12 181.516 231.17 207.636 278.59 255.046C326.01 302.456 352.12 365.516 352.12 432.576C352.12 499.636 326 562.686 278.59 610.106C231.17 657.526 168.12 683.636 101.06 683.636ZM101.06 182.506C34.27 182.506 -28.53 208.516 -75.76 255.746C-122.99 302.986 -149 365.776 -149 432.576C-149 499.376 -122.99 562.166 -75.76 609.396C-28.53 656.626 34.27 682.636 101.06 682.636C167.85 682.636 230.65 656.626 277.88 609.396C325.11 562.166 351.12 499.366 351.12 432.576C351.12 365.786 325.11 302.986 277.88 255.756C230.65 208.526 167.85 182.516 101.06 182.516V182.506Z" fill="#FB2938"/>
<path d="M1085.22 742.766C1018.16 742.766 955.11 716.646 907.69 669.236C860.27 621.816 834.16 558.766 834.16 491.706C834.16 424.646 860.28 361.596 907.69 314.176C955.11 266.756 1018.16 240.646 1085.22 240.646C1152.28 240.646 1215.33 266.766 1262.75 314.176C1310.17 361.586 1336.29 424.646 1336.29 491.706C1336.29 558.766 1310.17 621.816 1262.75 669.236C1215.33 716.656 1152.28 742.766 1085.22 742.766ZM1085.22 241.636C1018.43 241.636 955.63 267.646 908.4 314.876C861.17 362.106 835.16 424.906 835.16 491.696C835.16 558.486 861.17 621.286 908.4 668.516C955.63 715.746 1018.43 741.757 1085.22 741.757C1152.01 741.757 1214.81 715.746 1262.04 668.516C1309.27 621.286 1335.28 558.486 1335.28 491.696C1335.28 424.906 1309.27 362.106 1262.04 314.876C1214.81 267.646 1152.01 241.636 1085.22 241.636Z" fill="#FB2938"/>
<path d="M387.63 455.008C359.06 455.008 335.9 478.168 335.9 506.738C335.9 535.308 359.06 558.468 387.63 558.468C416.2 558.468 439.36 535.308 439.36 506.738C439.36 478.168 416.2 455.008 387.63 455.008ZM387.63 525.558C377.24 525.558 368.81 517.138 368.81 506.738C368.81 496.338 377.23 487.918 387.63 487.918C398.03 487.918 406.45 496.338 406.45 506.738C406.45 517.138 398.03 525.558 387.63 525.558Z" fill="#E84142"/>
<path d="M612.211 273.336C583.641 273.336 560.48 296.496 560.48 325.066C560.48 353.636 583.641 376.796 612.211 376.796C640.781 376.796 663.94 353.636 663.94 325.066C663.94 296.496 640.781 273.336 612.211 273.336ZM612.211 343.886C601.821 343.886 593.391 335.466 593.391 325.066C593.391 314.666 601.811 306.246 612.211 306.246C622.611 306.246 631.031 314.666 631.031 325.066C631.031 335.466 622.611 343.886 612.211 343.886Z" fill="#E84142"/>
<path d="M982.939 237.717C973.369 237.717 965.609 245.477 965.609 255.047C965.609 264.617 973.369 272.377 982.939 272.377C992.509 272.377 1000.27 264.617 1000.27 255.047C1000.27 245.477 992.509 237.717 982.939 237.717ZM982.939 261.357C979.459 261.357 976.639 258.537 976.639 255.057C976.639 251.577 979.459 248.757 982.939 248.757C986.419 248.757 989.239 251.577 989.239 255.057C989.239 258.537 986.419 261.357 982.939 261.357Z" fill="#E84142"/>
<path d="M332.321 458.797C320.071 458.797 310.131 468.727 310.131 480.987C310.131 493.247 320.061 503.177 332.321 503.177C344.581 503.177 354.511 493.247 354.511 480.987C354.511 468.727 344.581 458.797 332.321 458.797ZM332.321 489.057C327.861 489.057 324.251 485.447 324.251 480.987C324.251 476.527 327.861 472.917 332.321 472.917C336.781 472.917 340.391 476.527 340.391 480.987C340.391 485.447 336.781 489.057 332.321 489.057Z" fill="#E84142"/>
<path d="M202.631 217.527C184.721 217.527 170.211 232.047 170.211 249.947C170.211 267.847 184.731 282.367 202.631 282.367C220.531 282.367 235.051 267.847 235.051 249.947C235.051 232.047 220.531 217.527 202.631 217.527ZM202.631 261.747C196.121 261.747 190.841 256.467 190.841 249.957C190.841 243.447 196.121 238.167 202.631 238.167C209.141 238.167 214.421 243.447 214.421 249.957C214.421 256.467 209.141 261.747 202.631 261.747Z" fill="#E84142"/>
<path d="M202.63 197.977C173.93 197.977 150.66 221.247 150.66 249.947C150.66 278.647 173.93 301.917 202.63 301.917C231.33 301.917 254.6 278.647 254.6 249.947C254.6 221.247 231.33 197.977 202.63 197.977ZM202.63 295.407C177.52 295.407 157.17 275.057 157.17 249.947C157.17 224.837 177.52 204.487 202.63 204.487C227.74 204.487 248.09 224.837 248.09 249.947C248.09 275.057 227.74 295.407 202.63 295.407Z" fill="white"/>
<path d="M202.63 302.426C173.7 302.426 150.16 278.886 150.16 249.956C150.16 221.026 173.7 197.486 202.63 197.486C231.56 197.486 255.1 221.026 255.1 249.956C255.1 278.886 231.56 302.426 202.63 302.426ZM202.63 198.476C174.25 198.476 151.16 221.566 151.16 249.946C151.16 278.326 174.25 301.416 202.63 301.416C231.01 301.416 254.1 278.326 254.1 249.946C254.1 221.566 231.01 198.476 202.63 198.476ZM202.63 295.906C177.29 295.906 156.67 275.286 156.67 249.946C156.67 224.606 177.29 203.986 202.63 203.986C227.97 203.986 248.59 224.606 248.59 249.946C248.59 275.286 227.97 295.906 202.63 295.906ZM202.63 204.996C177.84 204.996 157.67 225.166 157.67 249.956C157.67 274.746 177.84 294.916 202.63 294.916C227.42 294.916 247.59 274.746 247.59 249.956C247.59 225.166 227.42 204.996 202.63 204.996Z" fill="#FB2938"/>
<path d="M222.25 218.836C229.203 218.836 234.84 213.2 234.84 206.246C234.84 199.293 229.203 193.656 222.25 193.656C215.297 193.656 209.66 199.293 209.66 206.246C209.66 213.2 215.297 218.836 222.25 218.836Z" fill="white"/>
<path d="M222.25 219.336C215.03 219.336 209.16 213.466 209.16 206.246C209.16 199.026 215.03 193.156 222.25 193.156C229.47 193.156 235.34 199.026 235.34 206.246C235.34 213.466 229.47 219.336 222.25 219.336ZM222.25 194.156C215.58 194.156 210.16 199.576 210.16 206.246C210.16 212.916 215.58 218.336 222.25 218.336C228.92 218.336 234.34 212.916 234.34 206.246C234.34 199.576 228.92 194.156 222.25 194.156Z" fill="#FB2938"/>
<path d="M183.471 308.157C190.424 308.157 196.061 302.52 196.061 295.567C196.061 288.613 190.424 282.977 183.471 282.977C176.518 282.977 170.881 288.613 170.881 295.567C170.881 302.52 176.518 308.157 183.471 308.157Z" fill="white"/>
<path d="M183.471 308.657C176.251 308.657 170.381 302.787 170.381 295.567C170.381 288.347 176.251 282.477 183.471 282.477C190.691 282.477 196.561 288.347 196.561 295.567C196.561 302.787 190.691 308.657 183.471 308.657ZM183.471 283.477C176.801 283.477 171.381 288.897 171.381 295.567C171.381 302.237 176.801 307.657 183.471 307.657C190.141 307.657 195.561 302.237 195.561 295.567C195.561 288.897 190.141 283.477 183.471 283.477Z" fill="#FB2938"/>
<path d="M95.3806 249.508C83.3706 249.508 73.6406 259.238 73.6406 271.248C73.6406 283.258 83.3706 292.988 95.3806 292.988C107.391 292.988 117.121 283.258 117.121 271.248C117.121 259.238 107.391 249.508 95.3806 249.508ZM95.3806 279.158C91.0106 279.158 87.4706 275.618 87.4706 271.248C87.4706 266.878 91.0106 263.338 95.3806 263.338C99.7506 263.338 103.291 266.878 103.291 271.248C103.291 275.618 99.7506 279.158 95.3806 279.158Z" fill="#E84142"/>
<path d="M95.3803 236.398C76.1303 236.398 60.5303 251.998 60.5303 271.248C60.5303 290.498 76.1303 306.098 95.3803 306.098C114.63 306.098 130.23 290.498 130.23 271.248C130.23 251.998 114.63 236.398 95.3803 236.398ZM95.3803 301.728C78.5503 301.728 64.9003 288.078 64.9003 271.248C64.9003 254.418 78.5503 240.768 95.3803 240.768C112.21 240.768 125.86 254.418 125.86 271.248C125.86 288.078 112.21 301.728 95.3803 301.728Z" fill="white"/>
<path d="M95.3803 306.598C75.8903 306.598 60.0303 290.738 60.0303 271.248C60.0303 251.758 75.8903 235.898 95.3803 235.898C114.87 235.898 130.73 251.758 130.73 271.248C130.73 290.738 114.87 306.598 95.3803 306.598ZM95.3803 236.908C76.4403 236.908 61.0303 252.318 61.0303 271.258C61.0303 290.198 76.4403 305.608 95.3803 305.608C114.32 305.608 129.73 290.198 129.73 271.258C129.73 252.318 114.32 236.908 95.3803 236.908ZM95.3803 302.238C78.3003 302.238 64.4003 288.338 64.4003 271.258C64.4003 254.178 78.3003 240.278 95.3803 240.278C112.46 240.278 126.36 254.178 126.36 271.258C126.36 288.338 112.46 302.238 95.3803 302.238ZM95.3803 241.278C78.8503 241.278 65.4003 254.728 65.4003 271.258C65.4003 287.788 78.8503 301.238 95.3803 301.238C111.91 301.238 125.36 287.788 125.36 271.258C125.36 254.728 111.91 241.278 95.3803 241.278Z" fill="#FB2938"/>
<path d="M108.541 250.378C113.202 250.378 116.981 246.599 116.981 241.938C116.981 237.277 113.202 233.498 108.541 233.498C103.879 233.498 100.101 237.277 100.101 241.938C100.101 246.599 103.879 250.378 108.541 250.378Z" fill="white"/>
<path d="M108.541 250.888C103.611 250.888 99.6006 246.878 99.6006 241.948C99.6006 237.018 103.611 233.008 108.541 233.008C113.471 233.008 117.481 237.018 117.481 241.948C117.481 246.878 113.471 250.888 108.541 250.888ZM108.541 234.008C104.161 234.008 100.601 237.568 100.601 241.948C100.601 246.328 104.161 249.888 108.541 249.888C112.921 249.888 116.481 246.328 116.481 241.948C116.481 237.568 112.921 234.008 108.541 234.008Z" fill="#FB2938"/>
<path d="M82.5406 310.269C87.2019 310.269 90.9806 306.49 90.9806 301.829C90.9806 297.167 87.2019 293.389 82.5406 293.389C77.8793 293.389 74.1006 297.167 74.1006 301.829C74.1006 306.49 77.8793 310.269 82.5406 310.269Z" fill="white"/>
<path d="M82.5406 310.778C77.6106 310.778 73.6006 306.768 73.6006 301.838C73.6006 296.908 77.6106 292.898 82.5406 292.898C87.4706 292.898 91.4806 296.908 91.4806 301.838C91.4806 306.768 87.4706 310.778 82.5406 310.778ZM82.5406 293.898C78.1606 293.898 74.6006 297.458 74.6006 301.838C74.6006 306.218 78.1606 309.778 82.5406 309.778C86.9206 309.778 90.4806 306.218 90.4806 301.838C90.4806 297.458 86.9206 293.898 82.5406 293.898Z" fill="#FB2938"/>
<path d="M193.09 481.688C175.18 481.688 160.67 496.207 160.67 514.107C160.67 532.007 175.19 546.527 193.09 546.527C210.99 546.527 225.51 532.007 225.51 514.107C225.51 496.207 210.99 481.688 193.09 481.688ZM193.09 525.907C186.58 525.907 181.3 520.627 181.3 514.117C181.3 507.607 186.58 502.327 193.09 502.327C199.6 502.327 204.88 507.607 204.88 514.117C204.88 520.627 199.6 525.907 193.09 525.907Z" fill="#E84142"/>
<path d="M193.089 462.137C164.389 462.137 141.119 485.407 141.119 514.107C141.119 542.807 164.389 566.077 193.089 566.077C221.789 566.077 245.059 542.807 245.059 514.107C245.059 485.407 221.789 462.137 193.089 462.137ZM193.089 559.567C167.979 559.567 147.629 539.217 147.629 514.107C147.629 488.997 167.979 468.647 193.089 468.647C218.199 468.647 238.549 488.997 238.549 514.107C238.549 539.217 218.199 559.567 193.089 559.567Z" fill="white"/>
<path d="M193.089 566.586C164.159 566.586 140.619 543.046 140.619 514.116C140.619 485.186 164.159 461.646 193.089 461.646C222.019 461.646 245.559 485.186 245.559 514.116C245.559 543.046 222.019 566.586 193.089 566.586ZM193.089 462.636C164.709 462.636 141.619 485.726 141.619 514.106C141.619 542.486 164.709 565.577 193.089 565.577C221.469 565.577 244.559 542.486 244.559 514.106C244.559 485.726 221.469 462.636 193.089 462.636ZM193.089 560.066C167.749 560.066 147.129 539.446 147.129 514.106C147.129 488.766 167.749 468.146 193.089 468.146C218.429 468.146 239.049 488.766 239.049 514.106C239.049 539.446 218.429 560.066 193.089 560.066ZM193.089 469.156C168.299 469.156 148.129 489.326 148.129 514.116C148.129 538.906 168.299 559.077 193.089 559.077C217.879 559.077 238.049 538.906 238.049 514.116C238.049 489.326 217.879 469.156 193.089 469.156Z" fill="#FB2938"/>
<path d="M212.719 482.996C219.672 482.996 225.309 477.36 225.309 470.406C225.309 463.453 219.672 457.816 212.719 457.816C205.766 457.816 200.129 463.453 200.129 470.406C200.129 477.36 205.766 482.996 212.719 482.996Z" fill="white"/>
<path d="M212.719 483.496C205.499 483.496 199.629 477.626 199.629 470.406C199.629 463.186 205.499 457.316 212.719 457.316C219.939 457.316 225.809 463.186 225.809 470.406C225.809 477.626 219.939 483.496 212.719 483.496ZM212.719 458.316C206.049 458.316 200.629 463.736 200.629 470.406C200.629 477.076 206.049 482.496 212.719 482.496C219.389 482.496 224.809 477.076 224.809 470.406C224.809 463.736 219.389 458.316 212.719 458.316Z" fill="#FB2938"/>
<path d="M173.94 572.317C180.893 572.317 186.53 566.68 186.53 559.727C186.53 552.773 180.893 547.137 173.94 547.137C166.986 547.137 161.35 552.773 161.35 559.727C161.35 566.68 166.986 572.317 173.94 572.317Z" fill="white"/>
<path d="M173.94 572.817C166.72 572.817 160.85 566.947 160.85 559.727C160.85 552.507 166.72 546.637 173.94 546.637C181.16 546.637 187.03 552.507 187.03 559.727C187.03 566.947 181.16 572.817 173.94 572.817ZM173.94 547.637C167.27 547.637 161.85 553.057 161.85 559.727C161.85 566.397 167.27 571.817 173.94 571.817C180.61 571.817 186.03 566.397 186.03 559.727C186.03 553.057 180.61 547.637 173.94 547.637Z" fill="#FB2938"/>
<path d="M782.441 395.859C764.531 395.859 750.021 410.379 750.021 428.279C750.021 446.179 764.541 460.699 782.441 460.699C800.341 460.699 814.861 446.179 814.861 428.279C814.861 410.379 800.341 395.859 782.441 395.859ZM782.441 440.079C775.931 440.079 770.651 434.799 770.651 428.289C770.651 421.779 775.931 416.499 782.441 416.499C788.951 416.499 794.231 421.779 794.231 428.289C794.231 434.799 788.951 440.079 782.441 440.079Z" fill="#E84142"/>
<path d="M782.441 376.309C753.741 376.309 730.471 399.579 730.471 428.279C730.471 456.979 753.741 480.249 782.441 480.249C811.141 480.249 834.411 456.979 834.411 428.279C834.411 399.579 811.141 376.309 782.441 376.309ZM782.441 473.739C757.331 473.739 736.981 453.389 736.981 428.279C736.981 403.169 757.331 382.819 782.441 382.819C807.551 382.819 827.901 403.169 827.901 428.279C827.901 453.389 807.551 473.739 782.441 473.739Z" fill="white"/>
<path d="M782.441 480.758C753.511 480.758 729.971 457.218 729.971 428.288C729.971 399.358 753.511 375.818 782.441 375.818C811.371 375.818 834.911 399.358 834.911 428.288C834.911 457.218 811.371 480.758 782.441 480.758ZM782.441 376.808C754.061 376.808 730.971 399.898 730.971 428.278C730.971 456.658 754.061 479.748 782.441 479.748C810.821 479.748 833.911 456.658 833.911 428.278C833.911 399.898 810.821 376.808 782.441 376.808ZM782.441 474.238C757.101 474.238 736.481 453.618 736.481 428.278C736.481 402.938 757.101 382.318 782.441 382.318C807.781 382.318 828.401 402.938 828.401 428.278C828.401 453.618 807.781 474.238 782.441 474.238ZM782.441 383.328C757.651 383.328 737.481 403.498 737.481 428.288C737.481 453.078 757.651 473.248 782.441 473.248C807.231 473.248 827.401 453.078 827.401 428.288C827.401 403.498 807.231 383.328 782.441 383.328Z" fill="#FB2938"/>
<path d="M802.07 397.168C809.024 397.168 814.66 391.532 814.66 384.578C814.66 377.625 809.024 371.988 802.07 371.988C795.117 371.988 789.48 377.625 789.48 384.578C789.48 391.532 795.117 397.168 802.07 397.168Z" fill="white"/>
<path d="M802.07 397.668C794.85 397.668 788.98 391.798 788.98 384.578C788.98 377.358 794.85 371.488 802.07 371.488C809.29 371.488 815.16 377.358 815.16 384.578C815.16 391.798 809.29 397.668 802.07 397.668ZM802.07 372.488C795.4 372.488 789.98 377.908 789.98 384.578C789.98 391.248 795.4 396.668 802.07 396.668C808.74 396.668 814.16 391.248 814.16 384.578C814.16 377.908 808.74 372.488 802.07 372.488Z" fill="#FB2938"/>
<path d="M763.291 486.489C770.244 486.489 775.881 480.852 775.881 473.899C775.881 466.945 770.244 461.309 763.291 461.309C756.338 461.309 750.701 466.945 750.701 473.899C750.701 480.852 756.338 486.489 763.291 486.489Z" fill="white"/>
<path d="M763.291 486.989C756.071 486.989 750.201 481.119 750.201 473.899C750.201 466.679 756.071 460.809 763.291 460.809C770.511 460.809 776.381 466.679 776.381 473.899C776.381 481.119 770.511 486.989 763.291 486.989ZM763.291 461.809C756.621 461.809 751.201 467.229 751.201 473.899C751.201 480.569 756.621 485.989 763.291 485.989C769.961 485.989 775.381 480.569 775.381 473.899C775.381 467.229 769.961 461.809 763.291 461.809Z" fill="#FB2938"/>
<path d="M914.091 223.258C909.181 223.258 905.201 227.238 905.201 232.148C905.201 237.058 909.181 241.038 914.091 241.038C919.001 241.038 922.981 237.058 922.981 232.148C922.981 227.238 919.001 223.258 914.091 223.258ZM914.091 235.378C912.301 235.378 910.861 233.928 910.861 232.148C910.861 230.368 912.311 228.918 914.091 228.918C915.871 228.918 917.321 230.368 917.321 232.148C917.321 233.928 915.871 235.378 914.091 235.378Z" fill="#E84142"/>
<path d="M914.092 217.895C906.222 217.895 899.852 224.275 899.852 232.135C899.852 239.995 906.232 246.375 914.092 246.375C921.952 246.375 928.332 239.995 928.332 232.135C928.332 224.275 921.952 217.895 914.092 217.895ZM914.092 244.595C907.212 244.595 901.632 239.015 901.632 232.135C901.632 225.255 907.212 219.675 914.092 219.675C920.972 219.675 926.552 225.255 926.552 232.135C926.552 239.015 920.972 244.595 914.092 244.595Z" fill="white"/>
<path d="M914.091 246.526C906.161 246.526 899.711 240.076 899.711 232.146C899.711 224.216 906.161 217.766 914.091 217.766C922.021 217.766 928.471 224.216 928.471 232.146C928.471 240.076 922.021 246.526 914.091 246.526ZM914.091 218.036C906.311 218.036 899.981 224.366 899.981 232.146C899.981 239.926 906.311 246.256 914.091 246.256C921.871 246.256 928.201 239.926 928.201 232.146C928.201 224.366 921.871 218.036 914.091 218.036ZM914.091 244.736C907.151 244.736 901.501 239.086 901.501 232.146C901.501 225.206 907.151 219.556 914.091 219.556C921.031 219.556 926.681 225.206 926.681 232.146C926.681 239.086 921.031 244.736 914.091 244.736ZM914.091 219.816C907.301 219.816 901.771 225.346 901.771 232.136C901.771 238.926 907.301 244.456 914.091 244.456C920.881 244.456 926.411 238.926 926.411 232.136C926.411 225.346 920.881 219.816 914.091 219.816Z" fill="#FB2938"/>
<path d="M919.471 223.617C921.377 223.617 922.922 222.072 922.922 220.167C922.922 218.261 921.377 216.717 919.471 216.717C917.566 216.717 916.021 218.261 916.021 220.167C916.021 222.072 917.566 223.617 919.471 223.617Z" fill="white"/>
<path d="M919.471 223.746C917.491 223.746 915.881 222.136 915.881 220.156C915.881 218.176 917.491 216.566 919.471 216.566C921.451 216.566 923.061 218.176 923.061 220.156C923.061 222.136 921.451 223.746 919.471 223.746ZM919.471 216.846C917.641 216.846 916.161 218.336 916.161 220.156C916.161 221.976 917.651 223.466 919.471 223.466C921.291 223.466 922.781 221.976 922.781 220.156C922.781 218.336 921.291 216.846 919.471 216.846Z" fill="#FB2938"/>
<path d="M908.852 248.097C910.758 248.097 912.302 246.553 912.302 244.647C912.302 242.742 910.758 241.197 908.852 241.197C906.947 241.197 905.402 242.742 905.402 244.647C905.402 246.553 906.947 248.097 908.852 248.097Z" fill="white"/>
<path d="M908.852 248.227C906.872 248.227 905.262 246.617 905.262 244.637C905.262 242.657 906.872 241.047 908.852 241.047C910.832 241.047 912.442 242.657 912.442 244.637C912.442 246.617 910.832 248.227 908.852 248.227ZM908.852 241.327C907.022 241.327 905.542 242.817 905.542 244.637C905.542 246.457 907.032 247.947 908.852 247.947C910.672 247.947 912.162 246.457 912.162 244.637C912.162 242.817 910.672 241.327 908.852 241.327Z" fill="#FB2938"/>
<path d="M1016.15 223.738C1017.75 219.098 1015.28 214.038 1010.64 212.448C1006 210.858 1000.94 213.318 999.351 217.958C997.761 222.598 1000.22 227.658 1004.86 229.248C1009.5 230.838 1014.56 228.378 1016.15 223.738ZM1004.69 219.798C1005.27 218.108 1007.11 217.208 1008.8 217.798C1010.49 218.388 1011.39 220.218 1010.8 221.908C1010.21 223.598 1008.38 224.498 1006.69 223.908C1005 223.318 1004.1 221.488 1004.69 219.798Z" fill="#E84142"/>
<path d="M1021.21 225.477C1023.77 218.037 1019.82 209.937 1012.38 207.377C1004.94 204.817 996.842 208.767 994.282 216.207C991.722 223.647 995.672 231.747 1003.11 234.307C1010.55 236.867 1018.65 232.917 1021.21 225.477ZM995.962 216.787C998.202 210.277 1005.29 206.827 1011.79 209.067C1018.29 211.307 1021.75 218.397 1019.51 224.897C1017.27 231.397 1010.18 234.857 1003.68 232.617C997.182 230.377 993.722 223.287 995.962 216.787Z" fill="white"/>
<path d="M994.151 216.157C996.731 208.657 1004.93 204.657 1012.43 207.237C1019.93 209.817 1023.93 218.017 1021.35 225.517C1018.77 233.017 1010.57 237.017 1003.07 234.437C995.571 231.857 991.571 223.657 994.151 216.157ZM1021.09 225.427C1023.62 218.077 1019.7 210.027 1012.34 207.497C1004.98 204.967 996.941 208.887 994.411 216.247C991.881 223.597 995.801 231.647 1003.16 234.177C1010.52 236.707 1018.56 232.787 1021.09 225.427ZM995.841 216.737C998.101 210.167 1005.28 206.667 1011.85 208.927C1018.42 211.187 1021.92 218.367 1019.66 224.937C1017.4 231.507 1010.22 235.007 1003.65 232.747C997.081 230.487 993.581 223.307 995.841 216.737ZM1019.4 224.847C1021.61 218.427 1018.18 211.397 1011.76 209.187C1005.34 206.977 998.311 210.407 996.101 216.827C993.891 223.247 997.321 230.277 1003.74 232.487C1010.16 234.697 1017.19 231.267 1019.4 224.847Z" fill="#FB2938"/>
<path d="M1017.32 233.277C1019.23 233.277 1020.77 231.732 1020.77 229.827C1020.77 227.922 1019.23 226.377 1017.32 226.377C1015.42 226.377 1013.87 227.922 1013.87 229.827C1013.87 231.732 1015.42 233.277 1017.32 233.277Z" fill="white"/>
<path d="M1013.93 228.657C1014.57 226.787 1016.62 225.787 1018.49 226.437C1020.36 227.087 1021.36 229.127 1020.71 230.997C1020.06 232.867 1018.02 233.867 1016.15 233.217C1014.28 232.567 1013.28 230.527 1013.93 228.657ZM1020.46 230.907C1021.05 229.177 1020.13 227.287 1018.41 226.697C1016.69 226.107 1014.79 227.027 1014.2 228.747C1013.61 230.467 1014.53 232.367 1016.25 232.957C1017.97 233.547 1019.87 232.627 1020.46 230.907Z" fill="#FB2938"/>
<path d="M997.632 215.257C999.537 215.257 1001.08 213.713 1001.08 211.807C1001.08 209.902 999.537 208.357 997.632 208.357C995.726 208.357 994.182 209.902 994.182 211.807C994.182 213.713 995.726 215.257 997.632 215.257Z" fill="white"/>
<path d="M994.241 210.637C994.881 208.767 996.931 207.767 998.801 208.417C1000.67 209.067 1001.67 211.107 1001.02 212.977C1000.37 214.847 998.331 215.847 996.461 215.197C994.591 214.547 993.591 212.507 994.241 210.637ZM1000.77 212.887C1001.36 211.157 1000.44 209.267 998.721 208.677C997.001 208.087 995.101 209.007 994.511 210.727C993.921 212.447 994.842 214.347 996.562 214.937C998.282 215.527 1000.18 214.607 1000.77 212.887Z" fill="#FB2938"/>
<path d="M913.09 480.547C871.03 480.547 836.93 514.647 836.93 556.707C836.93 598.767 871.03 632.867 913.09 632.867C955.15 632.867 989.25 598.767 989.25 556.707C989.25 514.647 955.15 480.547 913.09 480.547ZM913.09 584.407C897.79 584.407 885.39 572.007 885.39 556.707C885.39 541.407 897.79 529.007 913.09 529.007C928.39 529.007 940.79 541.407 940.79 556.707C940.79 572.007 928.39 584.407 913.09 584.407Z" fill="#E84142"/>
<path d="M913.09 434.627C845.67 434.627 791.01 489.287 791.01 556.707C791.01 624.127 845.67 678.787 913.09 678.787C980.51 678.787 1035.17 624.127 1035.17 556.707C1035.17 489.287 980.51 434.627 913.09 434.627ZM913.09 663.477C854.12 663.477 806.32 615.677 806.32 556.707C806.32 497.737 854.12 449.937 913.09 449.937C972.06 449.937 1019.86 497.737 1019.86 556.707C1019.86 615.677 972.06 663.477 913.09 663.477Z" fill="white"/>
<path d="M913.09 679.287C845.5 679.287 790.51 624.297 790.51 556.707C790.51 489.117 845.5 434.127 913.09 434.127C980.68 434.127 1035.67 489.117 1035.67 556.707C1035.67 624.297 980.68 679.287 913.09 679.287ZM913.09 435.127C846.05 435.127 791.51 489.667 791.51 556.707C791.51 623.747 846.05 678.287 913.09 678.287C980.13 678.287 1034.67 623.747 1034.67 556.707C1034.67 489.667 980.13 435.127 913.09 435.127ZM913.09 663.977C853.94 663.977 805.82 615.857 805.82 556.707C805.82 497.557 853.94 449.437 913.09 449.437C972.24 449.437 1020.36 497.557 1020.36 556.707C1020.36 615.857 972.24 663.977 913.09 663.977ZM913.09 450.437C854.49 450.437 806.82 498.107 806.82 556.707C806.82 615.307 854.49 662.977 913.09 662.977C971.69 662.977 1019.36 615.307 1019.36 556.707C1019.36 498.107 971.69 450.437 913.09 450.437Z" fill="#FB2938"/>
<path d="M959.189 483.627C975.526 483.627 988.769 470.383 988.769 454.047C988.769 437.71 975.526 424.467 959.189 424.467C942.853 424.467 929.609 437.71 929.609 454.047C929.609 470.383 942.853 483.627 959.189 483.627Z" fill="white"/>
<path d="M959.189 484.117C942.609 484.117 929.109 470.627 929.109 454.037C929.109 437.447 942.599 423.957 959.189 423.957C975.779 423.957 989.269 437.447 989.269 454.037C989.269 470.627 975.779 484.117 959.189 484.117ZM959.189 424.967C943.159 424.967 930.109 438.007 930.109 454.047C930.109 470.087 943.149 483.127 959.189 483.127C975.229 483.127 988.269 470.087 988.269 454.047C988.269 438.007 975.229 424.967 959.189 424.967Z" fill="#FB2938"/>
<path d="M868.099 693.435C884.436 693.435 897.68 680.192 897.68 663.855C897.68 647.519 884.436 634.275 868.099 634.275C851.763 634.275 838.52 647.519 838.52 663.855C838.52 680.192 851.763 693.435 868.099 693.435Z" fill="white"/>
<path d="M868.099 693.926C851.519 693.926 838.02 680.436 838.02 663.846C838.02 647.256 851.509 633.766 868.099 633.766C884.689 633.766 898.18 647.256 898.18 663.846C898.18 680.436 884.689 693.926 868.099 693.926ZM868.099 634.776C852.069 634.776 839.02 647.816 839.02 663.856C839.02 679.896 852.059 692.936 868.099 692.936C884.139 692.936 897.18 679.896 897.18 663.856C897.18 647.816 884.139 634.776 868.099 634.776Z" fill="#FB2938"/>
<path d="M751.3 609.808C741.49 596.838 723.03 594.278 710.06 604.088C697.09 613.898 694.53 632.358 704.34 645.328C714.15 658.298 732.61 660.858 745.58 651.048C758.55 641.238 761.11 622.778 751.3 609.808ZM719.27 634.028C715.7 629.308 716.63 622.598 721.35 619.028C726.07 615.458 732.78 616.388 736.35 621.108C739.92 625.828 738.99 632.538 734.27 636.108C729.55 639.678 722.84 638.748 719.27 634.028Z" fill="#E84142"/>
<path d="M765.46 599.096C749.74 578.306 720.14 574.196 699.35 589.916C678.56 605.636 674.45 635.236 690.17 656.026C705.89 676.816 735.49 680.926 756.28 665.206C777.07 649.486 781.18 619.886 765.46 599.096ZM694.89 652.466C681.14 634.286 684.73 608.396 702.92 594.646C721.11 580.896 746.99 584.486 760.74 602.676C774.49 620.856 770.9 646.746 752.71 660.496C734.52 674.246 708.64 670.656 694.89 652.466Z" fill="white"/>
<path d="M727.919 675.267C725.709 675.267 723.489 675.117 721.259 674.807C708.639 673.057 697.459 666.497 689.769 656.337C682.079 646.177 678.819 633.627 680.569 621.007C682.319 608.387 688.879 597.207 699.039 589.517C709.199 581.827 721.749 578.567 734.369 580.317C746.989 582.067 758.169 588.627 765.859 598.787C781.719 619.767 777.559 649.737 756.589 665.597C748.219 671.927 738.229 675.257 727.919 675.257V675.267ZM727.759 580.887C717.949 580.887 708.059 583.957 699.649 590.317C689.699 597.837 683.279 608.787 681.559 621.147C679.849 633.497 683.039 645.787 690.569 655.727C698.089 665.677 709.039 672.097 721.399 673.817C733.749 675.527 746.039 672.337 755.979 664.807C776.519 649.277 780.589 619.937 765.059 599.397C755.889 587.277 741.899 580.887 727.759 580.887ZM727.899 669.347C725.969 669.347 724.019 669.217 722.069 668.947C711.019 667.417 701.219 661.667 694.489 652.767C680.589 634.387 684.239 608.137 702.609 594.247C720.989 580.347 747.239 583.997 761.129 602.367C767.859 611.267 770.719 622.257 769.189 633.307C767.659 644.357 761.909 654.157 753.009 660.887C745.679 666.427 736.929 669.347 727.899 669.347ZM727.759 586.797C719.189 586.797 710.559 589.477 703.209 595.037C685.279 608.597 681.719 634.227 695.279 652.157C701.849 660.847 711.409 666.457 722.199 667.947C732.989 669.447 743.719 666.647 752.399 660.077C761.089 653.507 766.699 643.947 768.189 633.157C769.689 622.367 766.889 611.637 760.319 602.957C752.309 592.367 740.099 586.787 727.749 586.787L727.759 586.797Z" fill="#FB2938"/>
<path d="M770.229 629.278C776.541 629.278 781.659 624.161 781.659 617.848C781.659 611.535 776.541 606.418 770.229 606.418C763.916 606.418 758.799 611.535 758.799 617.848C758.799 624.161 763.916 629.278 770.229 629.278Z" fill="white"/>
<path d="M770.249 629.778C769.699 629.778 769.139 629.738 768.579 629.658C765.419 629.218 762.619 627.578 760.699 625.038C758.779 622.498 757.959 619.358 758.399 616.198C758.839 613.038 760.479 610.238 763.019 608.318C768.269 604.348 775.769 605.388 779.739 610.638C783.709 615.888 782.669 623.388 777.419 627.358C775.329 628.938 772.829 629.778 770.249 629.778ZM770.199 606.908C767.839 606.908 765.549 607.668 763.629 609.118C761.299 610.878 759.799 613.448 759.389 616.338C758.979 619.228 759.739 622.108 761.499 624.438C763.259 626.768 765.829 628.268 768.719 628.678C771.609 629.078 774.489 628.328 776.819 626.568C781.629 622.928 782.579 616.058 778.949 611.248C777.189 608.918 774.619 607.418 771.729 607.008C771.219 606.938 770.709 606.898 770.199 606.898V606.908Z" fill="#FB2938"/>
<path d="M684.289 650.108C690.602 650.108 695.719 644.991 695.719 638.678C695.719 632.365 690.602 627.248 684.289 627.248C677.977 627.248 672.859 632.365 672.859 638.678C672.859 644.991 677.977 650.108 684.289 650.108Z" fill="white"/>
<path d="M684.309 650.618C683.759 650.618 683.199 650.578 682.639 650.498C679.479 650.058 676.679 648.418 674.759 645.878C670.789 640.628 671.829 633.128 677.079 629.158C682.329 625.188 689.829 626.228 693.799 631.478C695.719 634.018 696.539 637.158 696.099 640.318C695.659 643.478 694.019 646.278 691.479 648.198C689.389 649.778 686.889 650.618 684.309 650.618ZM684.259 627.748C681.899 627.748 679.609 628.508 677.689 629.958C675.359 631.718 673.859 634.288 673.449 637.178C673.039 640.068 673.799 642.948 675.559 645.278C677.319 647.608 679.889 649.108 682.779 649.518C685.669 649.918 688.549 649.168 690.879 647.408C693.209 645.648 694.709 643.078 695.119 640.188C695.529 637.298 694.769 634.418 693.009 632.088C691.249 629.758 688.679 628.258 685.789 627.848C685.279 627.778 684.769 627.738 684.259 627.738V627.748Z" fill="#FB2938"/>
<path d="M425.061 100.227C407.151 100.227 392.641 114.747 392.641 132.647C392.641 150.547 407.161 165.067 425.061 165.067C442.961 165.067 457.481 150.547 457.481 132.647C457.481 114.747 442.961 100.227 425.061 100.227ZM425.061 144.447C418.551 144.447 413.271 139.167 413.271 132.657C413.271 126.147 418.551 120.867 425.061 120.867C431.571 120.867 436.851 126.147 436.851 132.657C436.851 139.167 431.571 144.447 425.061 144.447Z" fill="#E84142"/>
<path d="M425.06 80.6758C396.36 80.6758 373.09 103.946 373.09 132.646C373.09 161.346 396.36 184.616 425.06 184.616C453.76 184.616 477.03 161.346 477.03 132.646C477.03 103.946 453.76 80.6758 425.06 80.6758ZM425.06 178.106C399.95 178.106 379.6 157.756 379.6 132.646C379.6 107.536 399.95 87.1858 425.06 87.1858C450.17 87.1858 470.52 107.536 470.52 132.646C470.52 157.756 450.17 178.106 425.06 178.106Z" fill="white"/>
<path d="M425.06 185.126C396.13 185.126 372.59 161.586 372.59 132.656C372.59 103.726 396.13 80.1855 425.06 80.1855C453.99 80.1855 477.53 103.726 477.53 132.656C477.53 161.586 453.99 185.126 425.06 185.126ZM425.06 81.1755C396.68 81.1755 373.59 104.266 373.59 132.646C373.59 161.026 396.68 184.116 425.06 184.116C453.44 184.116 476.53 161.026 476.53 132.646C476.53 104.266 453.44 81.1755 425.06 81.1755ZM425.06 178.606C399.72 178.606 379.1 157.986 379.1 132.646C379.1 107.306 399.72 86.6855 425.06 86.6855C450.4 86.6855 471.02 107.306 471.02 132.646C471.02 157.986 450.4 178.606 425.06 178.606ZM425.06 87.6955C400.27 87.6955 380.1 107.866 380.1 132.656C380.1 157.446 400.27 177.616 425.06 177.616C449.85 177.616 470.02 157.446 470.02 132.656C470.02 107.866 449.85 87.6955 425.06 87.6955Z" fill="#FB2938"/>
<path d="M444.69 101.535C451.643 101.535 457.28 95.8987 457.28 88.9455C457.28 81.9922 451.643 76.3555 444.69 76.3555C437.736 76.3555 432.1 81.9922 432.1 88.9455C432.1 95.8987 437.736 101.535 444.69 101.535Z" fill="white"/>
<path d="M444.69 102.035C437.47 102.035 431.6 96.1655 431.6 88.9455C431.6 81.7255 437.47 75.8555 444.69 75.8555C451.91 75.8555 457.78 81.7255 457.78 88.9455C457.78 96.1655 451.91 102.035 444.69 102.035ZM444.69 76.8555C438.02 76.8555 432.6 82.2755 432.6 88.9455C432.6 95.6155 438.02 101.035 444.69 101.035C451.36 101.035 456.78 95.6155 456.78 88.9455C456.78 82.2755 451.36 76.8555 444.69 76.8555Z" fill="#FB2938"/>
<path d="M405.91 190.856C412.864 190.856 418.5 185.219 418.5 178.266C418.5 171.313 412.864 165.676 405.91 165.676C398.957 165.676 393.32 171.313 393.32 178.266C393.32 185.219 398.957 190.856 405.91 190.856Z" fill="white"/>
<path d="M405.91 191.356C398.69 191.356 392.82 185.486 392.82 178.266C392.82 171.046 398.69 165.176 405.91 165.176C413.13 165.176 419 171.046 419 178.266C419 185.486 413.13 191.356 405.91 191.356ZM405.91 166.176C399.24 166.176 393.82 171.596 393.82 178.266C393.82 184.936 399.24 190.356 405.91 190.356C412.58 190.356 418 184.936 418 178.266C418 171.596 412.58 166.176 405.91 166.176Z" fill="#FB2938"/>
<path d="M313.559 148.076C306.999 141.516 296.359 141.516 289.789 148.076C283.229 154.636 283.229 165.276 289.789 171.846C296.349 178.406 306.989 178.406 313.559 171.846C320.119 165.286 320.119 154.646 313.559 148.076ZM297.349 164.286C294.959 161.896 294.959 158.026 297.349 155.636C299.739 153.246 303.609 153.246 305.999 155.636C308.389 158.026 308.389 161.896 305.999 164.286C303.609 166.676 299.739 166.676 297.349 164.286Z" fill="#E84142"/>
<path d="M320.728 140.906C310.208 130.386 293.148 130.386 282.628 140.906C272.108 151.426 272.108 168.486 282.628 179.006C293.148 189.526 310.208 189.526 320.728 179.006C331.248 168.486 331.248 151.426 320.728 140.906ZM285.018 176.616C275.818 167.416 275.818 152.496 285.018 143.296C294.218 134.096 309.138 134.096 318.338 143.296C327.538 152.496 327.538 167.416 318.338 176.616C309.138 185.816 294.218 185.816 285.018 176.616Z" fill="white"/>
<path d="M301.678 187.396C294.348 187.396 287.458 184.546 282.278 179.356C277.098 174.176 274.238 167.286 274.238 159.956C274.238 152.626 277.088 145.736 282.278 140.556C287.458 135.376 294.348 132.516 301.678 132.516C309.008 132.516 315.898 135.366 321.078 140.556C326.258 145.736 329.118 152.626 329.118 159.956C329.118 167.286 326.268 174.176 321.078 179.356C315.898 184.536 309.008 187.396 301.678 187.396ZM301.678 133.516C294.618 133.516 287.978 136.266 282.978 141.256C277.988 146.246 275.238 152.886 275.238 159.956C275.238 167.026 277.988 173.656 282.978 178.656C287.968 183.646 294.608 186.396 301.678 186.396C308.748 186.396 315.378 183.646 320.378 178.656C325.368 173.666 328.118 167.026 328.118 159.956C328.118 152.886 325.368 146.256 320.378 141.256C315.388 136.266 308.748 133.516 301.678 133.516ZM301.678 184.006C295.518 184.006 289.358 181.656 284.658 176.966C275.278 167.586 275.278 152.316 284.658 142.936C289.198 138.396 295.248 135.886 301.668 135.886C308.088 135.886 314.138 138.386 318.688 142.936C328.068 152.316 328.068 167.586 318.688 176.966C313.998 181.656 307.838 184.006 301.678 184.006ZM285.368 176.266C294.358 185.256 308.988 185.256 317.988 176.266C326.978 167.276 326.978 152.646 317.988 143.646C313.628 139.286 307.838 136.896 301.678 136.896C295.518 136.896 289.728 139.296 285.368 143.646C276.378 152.636 276.378 167.266 285.368 176.266Z" fill="#FB2938"/>
<path d="M324.887 157.665C328.494 157.665 331.417 154.742 331.417 151.135C331.417 147.529 328.494 144.605 324.887 144.605C321.281 144.605 318.357 147.529 318.357 151.135C318.357 154.742 321.281 157.665 324.887 157.665Z" fill="white"/>
<path d="M324.888 158.155C323.088 158.155 321.288 157.475 319.918 156.105C317.178 153.365 317.178 148.905 319.918 146.165C321.248 144.835 323.008 144.105 324.888 144.105C326.768 144.105 328.528 144.835 329.858 146.165C332.598 148.905 332.598 153.365 329.858 156.105C328.488 157.475 326.688 158.155 324.888 158.155ZM324.888 145.105C323.278 145.105 321.768 145.735 320.628 146.875C318.278 149.225 318.278 153.045 320.628 155.395C322.978 157.745 326.798 157.745 329.148 155.395C331.498 153.045 331.498 149.225 329.148 146.875C328.008 145.735 326.498 145.105 324.888 145.105Z" fill="#FB2938"/>
<path d="M277.938 176.185C281.545 176.185 284.468 173.261 284.468 169.655C284.468 166.049 281.545 163.125 277.938 163.125C274.332 163.125 271.408 166.049 271.408 169.655C271.408 173.261 274.332 176.185 277.938 176.185Z" fill="white"/>
<path d="M277.939 176.686C276.139 176.686 274.339 175.996 272.969 174.636C270.229 171.896 270.229 167.436 272.969 164.696C275.709 161.956 280.169 161.956 282.909 164.696C285.649 167.436 285.649 171.896 282.909 174.636C281.539 176.006 279.739 176.686 277.939 176.686ZM277.939 163.636C276.399 163.636 274.849 164.226 273.679 165.396C271.329 167.746 271.329 171.566 273.679 173.916C276.029 176.266 279.849 176.266 282.199 173.916C284.549 171.566 284.549 167.746 282.199 165.396C281.029 164.226 279.479 163.636 277.939 163.636Z" fill="#FB2938"/>
<path d="M332.001 222.457C325.441 215.897 314.801 215.897 308.231 222.457C301.671 229.017 301.671 239.657 308.231 246.227C314.791 252.787 325.431 252.787 332.001 246.227C338.561 239.667 338.561 229.027 332.001 222.457ZM315.791 238.667C313.401 236.277 313.401 232.407 315.791 230.017C318.181 227.627 322.051 227.627 324.441 230.017C326.831 232.407 326.831 236.277 324.441 238.667C322.051 241.057 318.181 241.057 315.791 238.667Z" fill="#E84142"/>
<path d="M339.16 215.296C328.64 204.776 311.58 204.776 301.06 215.296C290.54 225.816 290.54 242.876 301.06 253.396C311.58 263.916 328.64 263.916 339.16 253.396C349.68 242.876 349.68 225.816 339.16 215.296ZM303.45 251.006C294.25 241.806 294.25 226.886 303.45 217.686C312.65 208.486 327.57 208.486 336.77 217.686C345.97 226.886 345.97 241.806 336.77 251.006C327.57 260.206 312.65 260.206 303.45 251.006Z" fill="white"/>
<path d="M320.111 261.776C313.081 261.776 306.061 259.106 300.711 253.756C290.011 243.056 290.011 225.646 300.711 214.946C305.891 209.766 312.781 206.906 320.111 206.906C327.441 206.906 334.331 209.756 339.511 214.946C350.211 225.646 350.211 243.056 339.511 253.756C334.161 259.106 327.131 261.776 320.111 261.776ZM320.111 207.906C313.051 207.906 306.411 210.656 301.411 215.646C291.101 225.956 291.101 242.726 301.411 253.036C311.721 263.346 328.491 263.346 338.801 253.036C349.111 242.726 349.111 225.956 338.801 215.646C333.811 210.656 327.171 207.906 320.101 207.906H320.111ZM320.111 258.396C313.951 258.396 307.791 256.046 303.091 251.356C298.551 246.816 296.041 240.766 296.041 234.346C296.041 227.926 298.541 221.876 303.091 217.336C307.641 212.796 313.681 210.286 320.111 210.286C326.541 210.286 332.581 212.786 337.121 217.336C341.661 221.886 344.171 227.926 344.171 234.346C344.171 240.766 341.671 246.816 337.121 251.356C332.571 255.896 326.271 258.396 320.111 258.396ZM303.801 250.656C312.791 259.646 327.421 259.646 336.421 250.656C340.781 246.296 343.171 240.506 343.171 234.346C343.171 228.186 340.771 222.396 336.421 218.036C332.071 213.676 326.271 211.276 320.111 211.276C313.951 211.276 308.161 213.676 303.801 218.036C294.811 227.026 294.811 241.656 303.801 250.656Z" fill="#FB2938"/>
<path d="M343.329 232.044C346.935 232.044 349.859 229.121 349.859 225.514C349.859 221.908 346.935 218.984 343.329 218.984C339.722 218.984 336.799 221.908 336.799 225.514C336.799 229.121 339.722 232.044 343.329 232.044Z" fill="white"/>
<path d="M343.33 232.545C341.53 232.545 339.73 231.865 338.36 230.495C335.62 227.755 335.62 223.295 338.36 220.555C341.1 217.815 345.56 217.815 348.3 220.555C351.04 223.295 351.04 227.755 348.3 230.495C346.93 231.865 345.13 232.545 343.33 232.545ZM343.33 219.495C341.79 219.495 340.24 220.085 339.07 221.255C336.72 223.605 336.72 227.425 339.07 229.775C341.42 232.125 345.24 232.125 347.59 229.775C349.94 227.425 349.94 223.605 347.59 221.255C346.42 220.085 344.87 219.495 343.33 219.495Z" fill="#FB2938"/>
<path d="M296.37 250.576C299.976 250.576 302.9 247.652 302.9 244.046C302.9 240.439 299.976 237.516 296.37 237.516C292.763 237.516 289.84 240.439 289.84 244.046C289.84 247.652 292.763 250.576 296.37 250.576Z" fill="white"/>
<path d="M296.38 251.066C294.58 251.066 292.78 250.376 291.41 249.016C288.67 246.276 288.67 241.816 291.41 239.076C294.15 236.336 298.61 236.336 301.35 239.076C304.09 241.816 304.09 246.276 301.35 249.016C299.98 250.386 298.18 251.066 296.38 251.066ZM296.38 238.016C294.84 238.016 293.29 238.606 292.12 239.776C289.77 242.126 289.77 245.946 292.12 248.296C294.47 250.646 298.29 250.646 300.64 248.296C302.99 245.946 302.99 242.126 300.64 239.776C299.47 238.606 297.92 238.016 296.38 238.016Z" fill="#FB2938"/>
<path d="M389.85 250.117C383.29 243.557 372.65 243.557 366.08 250.117C359.52 256.677 359.52 267.317 366.08 273.887C372.64 280.447 383.28 280.447 389.85 273.887C396.41 267.327 396.41 256.687 389.85 250.117ZM373.64 266.327C371.25 263.937 371.25 260.067 373.64 257.677C376.03 255.287 379.9 255.287 382.29 257.677C384.68 260.067 384.68 263.937 382.29 266.327C379.9 268.717 376.03 268.717 373.64 266.327Z" fill="#E84142"/>
<path d="M397.019 242.947C386.499 232.427 369.439 232.427 358.919 242.947C348.399 253.467 348.399 270.527 358.919 281.047C369.439 291.567 386.499 291.567 397.019 281.047C407.539 270.527 407.539 253.467 397.019 242.947ZM361.309 278.657C352.109 269.457 352.109 254.537 361.309 245.337C370.509 236.137 385.429 236.137 394.629 245.337C403.829 254.537 403.829 269.457 394.629 278.657C385.429 287.857 370.509 287.857 361.309 278.657Z" fill="white"/>
<path d="M377.969 289.427C370.939 289.427 363.919 286.757 358.569 281.407C353.389 276.227 350.529 269.337 350.529 262.007C350.529 254.677 353.379 247.787 358.569 242.607C369.269 231.907 386.679 231.907 397.379 242.607C408.079 253.307 408.079 270.717 397.379 281.417C392.029 286.767 384.999 289.437 377.979 289.437L377.969 289.427ZM377.969 235.567C371.199 235.567 364.429 238.147 359.269 243.297C354.279 248.287 351.529 254.927 351.529 261.997C351.529 269.067 354.279 275.697 359.269 280.697C369.579 291.007 386.349 291.007 396.659 280.697C406.969 270.387 406.969 253.617 396.659 243.307C391.509 238.157 384.729 235.577 377.959 235.577L377.969 235.567ZM377.969 286.057C371.539 286.057 365.499 283.557 360.959 279.007C351.579 269.627 351.579 254.357 360.959 244.977C365.499 240.437 371.549 237.927 377.969 237.927C384.389 237.927 390.439 240.427 394.979 244.977C404.359 254.357 404.359 269.627 394.979 279.007C390.439 283.547 384.389 286.057 377.969 286.057ZM361.659 278.307C366.019 282.667 371.809 285.057 377.969 285.057C384.129 285.057 389.919 282.657 394.279 278.307C403.269 269.317 403.269 254.687 394.279 245.687C389.919 241.327 384.129 238.937 377.969 238.937C371.809 238.937 366.019 241.337 361.659 245.687C352.669 254.677 352.669 269.307 361.659 278.307Z" fill="#FB2938"/>
<path d="M401.178 259.708C404.785 259.708 407.708 256.785 407.708 253.178C407.708 249.572 404.785 246.648 401.178 246.648C397.572 246.648 394.648 249.572 394.648 253.178C394.648 256.785 397.572 259.708 401.178 259.708Z" fill="white"/>
<path d="M401.179 260.197C399.379 260.197 397.579 259.507 396.209 258.147C393.469 255.407 393.469 250.947 396.209 248.207C398.949 245.467 403.409 245.467 406.149 248.207C408.889 250.947 408.889 255.407 406.149 258.147C404.779 259.517 402.979 260.197 401.179 260.197ZM401.179 247.147C399.639 247.147 398.089 247.737 396.919 248.907C394.569 251.257 394.569 255.077 396.919 257.427C399.269 259.777 403.089 259.777 405.439 257.427C407.789 255.077 407.789 251.257 405.439 248.907C404.269 247.737 402.719 247.147 401.179 247.147Z" fill="#FB2938"/>
<path d="M354.229 278.226C357.836 278.226 360.759 275.302 360.759 271.696C360.759 268.09 357.836 265.166 354.229 265.166C350.623 265.166 347.699 268.09 347.699 271.696C347.699 275.302 350.623 278.226 354.229 278.226Z" fill="white"/>
<path d="M354.23 278.726C352.43 278.726 350.63 278.046 349.26 276.676C346.52 273.936 346.52 269.476 349.26 266.736C350.59 265.406 352.35 264.676 354.23 264.676C356.11 264.676 357.87 265.406 359.2 266.736C361.94 269.476 361.94 273.936 359.2 276.676C357.83 278.046 356.03 278.726 354.23 278.726ZM354.23 265.676C352.62 265.676 351.11 266.306 349.97 267.446C347.62 269.796 347.62 273.616 349.97 275.966C352.32 278.316 356.14 278.316 358.49 275.966C360.84 273.616 360.84 269.796 358.49 267.446C357.35 266.306 355.84 265.676 354.23 265.676Z" fill="#FB2938"/>
<path d="M651.069 175.546C654.259 161.146 645.159 146.886 630.759 143.696C616.359 140.506 602.099 149.606 598.909 164.006C595.719 178.406 604.819 192.666 619.219 195.856C633.619 199.046 647.879 189.946 651.069 175.546ZM615.499 167.676C616.659 162.436 621.849 159.126 627.079 160.286C632.319 161.446 635.629 166.636 634.469 171.866C633.309 177.106 628.119 180.416 622.889 179.256C617.649 178.096 614.339 172.906 615.499 167.676Z" fill="#E84142"/>
<path d="M666.798 179.016C671.908 155.926 657.328 133.076 634.238 127.966C611.148 122.856 588.298 137.436 583.188 160.526C578.078 183.616 592.658 206.466 615.748 211.576C638.838 216.686 661.688 202.106 666.798 179.016ZM588.428 161.686C592.898 141.496 612.888 128.746 633.078 133.206C653.268 137.676 666.018 157.666 661.558 177.856C657.088 198.046 637.098 210.796 616.908 206.336C596.718 201.866 583.968 181.876 588.428 161.686Z" fill="white"/>
<path d="M624.999 213.386C621.889 213.386 618.739 213.046 615.579 212.356C592.099 207.166 577.219 183.836 582.419 160.356C584.939 148.986 591.729 139.266 601.549 133.006C611.369 126.746 623.039 124.676 634.419 127.196C657.899 132.386 672.779 155.716 667.579 179.196L666.799 179.026L667.579 179.196C663.089 199.516 645.009 213.396 625.009 213.396L624.999 213.386ZM624.909 127.736C616.989 127.736 609.229 129.986 602.399 134.346C592.939 140.386 586.389 149.746 583.969 160.696C578.969 183.316 593.299 205.796 615.919 210.796C638.539 215.796 661.019 201.466 666.019 178.846C671.019 156.226 656.689 133.746 634.059 128.746C631.019 128.076 627.949 127.736 624.899 127.736H624.909ZM625.069 208.026C622.299 208.026 619.509 207.726 616.739 207.106C606.769 204.896 598.249 198.946 592.759 190.326C587.269 181.716 585.459 171.476 587.659 161.506C592.209 140.916 612.659 127.866 633.259 132.426C643.229 134.636 651.749 140.586 657.239 149.206C662.729 157.816 664.539 168.056 662.339 178.026C660.129 187.996 654.179 196.516 645.559 202.006C639.339 205.976 632.269 208.016 625.069 208.016V208.026ZM589.209 161.856C587.099 171.416 588.829 181.226 594.089 189.476C599.349 197.726 607.519 203.436 617.079 205.556C626.639 207.666 636.449 205.936 644.699 200.676C652.949 195.416 658.659 187.246 660.779 177.686C662.889 168.126 661.159 158.316 655.899 150.066C650.639 141.816 642.469 136.106 632.909 133.986C613.179 129.626 593.569 142.126 589.209 161.856Z" fill="#FB2938"/>
<path d="M656.659 203.707C662.386 203.707 667.029 199.064 667.029 193.337C667.029 187.61 662.386 182.967 656.659 182.967C650.932 182.967 646.289 187.61 646.289 193.337C646.289 199.064 650.932 203.707 656.659 203.707Z" fill="white"/>
<path d="M656.659 204.507C655.859 204.507 655.059 204.417 654.249 204.247C651.339 203.607 648.849 201.867 647.249 199.347C645.649 196.827 645.119 193.847 645.759 190.927C647.089 184.917 653.049 181.107 659.079 182.437C665.089 183.767 668.899 189.737 667.569 195.757C666.419 200.957 661.789 204.517 656.669 204.517L656.659 204.507ZM656.659 183.757C652.269 183.757 648.299 186.807 647.309 191.267C646.759 193.767 647.209 196.327 648.589 198.487C649.969 200.647 652.099 202.137 654.599 202.687C659.749 203.827 664.879 200.557 666.019 195.407C667.159 190.247 663.889 185.127 658.739 183.987C658.049 183.837 657.349 183.757 656.669 183.757H656.659Z" fill="#FB2938"/>
<path d="M591.71 156.627C597.437 156.627 602.08 151.984 602.08 146.257C602.08 140.53 597.437 135.887 591.71 135.887C585.983 135.887 581.34 140.53 581.34 146.257C581.34 151.984 585.983 156.627 591.71 156.627Z" fill="white"/>
<path d="M591.71 157.427C590.91 157.427 590.1 157.337 589.3 157.167C586.39 156.527 583.9 154.787 582.3 152.267C580.7 149.747 580.17 146.767 580.81 143.847C582.14 137.837 588.1 134.027 594.13 135.357C600.14 136.687 603.95 142.657 602.62 148.677C601.47 153.877 596.84 157.437 591.72 157.437L591.71 157.427ZM591.71 136.677C587.32 136.677 583.35 139.727 582.36 144.187C581.81 146.687 582.26 149.247 583.64 151.407C585.02 153.567 587.15 155.057 589.65 155.607C594.8 156.747 599.93 153.477 601.07 148.327C601.62 145.827 601.17 143.267 599.79 141.107C598.41 138.947 596.28 137.457 593.78 136.907C593.09 136.757 592.39 136.677 591.71 136.677Z" fill="#FB2938"/>
<path d="M705.721 104.955C707.611 96.3954 702.211 87.9154 693.641 86.0254C685.081 84.1354 676.601 89.5354 674.711 98.1054C672.821 106.665 678.221 115.145 686.791 117.035C695.351 118.925 703.831 113.525 705.721 104.955ZM684.581 100.275C685.271 97.1654 688.351 95.1954 691.471 95.8854C694.581 96.5754 696.551 99.6554 695.861 102.775C695.171 105.895 692.091 107.855 688.971 107.165C685.851 106.475 683.891 103.395 684.581 100.275Z" fill="#E84142"/>
<path d="M715.069 107.016C718.109 93.2859 709.439 79.7059 695.709 76.6659C681.979 73.6259 668.399 82.2959 665.359 96.0259C662.319 109.756 670.989 123.336 684.719 126.376C698.449 129.416 712.029 120.746 715.069 107.016ZM668.479 96.7159C671.139 84.7159 683.019 77.1359 695.019 79.7859C707.019 82.4459 714.599 94.3259 711.949 106.326C709.289 118.326 697.409 125.906 685.409 123.256C673.409 120.596 665.829 108.716 668.479 96.7159Z" fill="white"/>
<path d="M690.26 127.456C688.38 127.456 686.49 127.246 684.61 126.836C670.65 123.746 661.81 109.886 664.89 95.9262C667.98 81.9662 681.85 73.1262 695.8 76.2062C702.56 77.7062 708.34 81.7362 712.06 87.5762C715.78 93.4162 717.01 100.356 715.52 107.116C714.02 113.876 709.99 119.656 704.15 123.376C699.93 126.066 695.14 127.456 690.26 127.456ZM690.2 76.5362C678.74 76.5362 668.39 84.4862 665.81 96.1262C662.84 109.576 671.36 122.936 684.81 125.916C691.33 127.356 698.01 126.176 703.64 122.586C709.26 118.996 713.16 113.436 714.6 106.916C716.04 100.396 714.86 93.7162 711.27 88.0862C707.68 82.4562 702.12 78.5662 695.6 77.1262C693.79 76.7262 691.98 76.5362 690.2 76.5362ZM690.2 124.256C688.58 124.256 686.93 124.086 685.29 123.716C679.36 122.406 674.3 118.866 671.03 113.746C667.76 108.626 666.69 102.536 668 96.6162C670.71 84.3762 682.87 76.6162 695.11 79.3262C707.35 82.0362 715.11 94.1962 712.4 106.436C710.06 117.026 700.63 124.266 690.21 124.266L690.2 124.256ZM690.2 79.7262C680.21 79.7262 671.17 86.6562 668.93 96.8162C667.67 102.496 668.7 108.336 671.83 113.236C674.96 118.146 679.81 121.536 685.5 122.796C697.23 125.386 708.89 117.956 711.48 106.226C714.07 94.4962 706.64 82.8362 694.91 80.2462C693.33 79.8962 691.75 79.7262 690.2 79.7262Z" fill="#FB2938"/>
<path d="M709.039 121.707C712.447 121.707 715.209 118.945 715.209 115.537C715.209 112.13 712.447 109.367 709.039 109.367C705.632 109.367 702.869 112.13 702.869 115.537C702.869 118.945 705.632 121.707 709.039 121.707Z" fill="white"/>
<path d="M709.05 122.177C708.57 122.177 708.08 122.127 707.6 122.017C704.03 121.227 701.76 117.677 702.55 114.097C702.93 112.367 703.97 110.887 705.46 109.937C706.95 108.987 708.74 108.667 710.46 109.057C712.19 109.437 713.67 110.477 714.62 111.967C715.57 113.467 715.89 115.237 715.5 116.967C715.11 118.697 714.08 120.177 712.59 121.127C711.51 121.817 710.28 122.167 709.03 122.167L709.05 122.177ZM707.81 121.097C709.3 121.427 710.82 121.157 712.1 120.337C713.38 119.517 714.27 118.247 714.6 116.767C714.93 115.287 714.66 113.757 713.84 112.477C713.02 111.197 711.75 110.307 710.27 109.977C708.78 109.647 707.26 109.917 705.98 110.737C704.7 111.557 703.81 112.827 703.48 114.307C702.8 117.367 704.75 120.417 707.81 121.097Z" fill="#FB2938"/>
<path d="M670.43 93.7033C673.837 93.7033 676.6 90.9409 676.6 87.5333C676.6 84.1257 673.837 81.3633 670.43 81.3633C667.022 81.3633 664.26 84.1257 664.26 87.5333C664.26 90.9409 667.022 93.7033 670.43 93.7033Z" fill="white"/>
<path d="M670.44 94.1847C669.96 94.1847 669.47 94.1347 668.99 94.0247C665.42 93.2347 663.15 89.6847 663.94 86.1047C664.32 84.3747 665.36 82.8947 666.85 81.9447C668.34 80.9947 670.13 80.6747 671.85 81.0647C673.58 81.4447 675.06 82.4847 676.01 83.9747C676.96 85.4747 677.28 87.2447 676.89 88.9747C676.5 90.7047 675.47 92.1847 673.98 93.1347C672.9 93.8247 671.67 94.1747 670.42 94.1747L670.44 94.1847ZM669.2 93.1047C670.69 93.4347 672.21 93.1647 673.49 92.3447C674.77 91.5247 675.66 90.2547 675.99 88.7747C676.32 87.2947 676.05 85.7647 675.23 84.4847C674.41 83.2047 673.14 82.3147 671.66 81.9847C670.17 81.6547 668.65 81.9247 667.37 82.7447C666.09 83.5647 665.2 84.8347 664.87 86.3147C664.19 89.3747 666.14 92.4247 669.2 93.1047Z" fill="#FB2938"/>
<path d="M700.93 492.646C685.66 477.376 660.89 477.376 645.62 492.646C630.35 507.916 630.35 532.686 645.62 547.956C660.89 563.226 685.66 563.226 700.93 547.956C716.2 532.686 716.2 507.916 700.93 492.646ZM663.21 530.366C657.65 524.806 657.65 515.806 663.21 510.246C668.77 504.686 677.77 504.686 683.33 510.246C688.89 515.806 688.89 524.806 683.33 530.366C677.77 535.926 668.77 535.926 663.21 530.366Z" fill="#E84142"/>
<path d="M717.61 475.965C693.13 451.485 653.43 451.485 628.94 475.965C604.46 500.445 604.46 540.145 628.94 564.635C653.42 589.115 693.12 589.115 717.61 564.635C742.1 540.155 742.09 500.455 717.61 475.965ZM634.5 559.075C613.09 537.665 613.09 502.945 634.5 481.525C655.91 460.115 690.63 460.115 712.05 481.525C733.46 502.935 733.46 537.655 712.05 559.075C690.64 580.485 655.92 580.485 634.5 559.075Z" fill="white"/>
<path d="M673.279 583.495C656.399 583.495 640.529 576.925 628.589 564.985C603.949 540.345 603.949 500.255 628.589 475.615C640.529 463.675 656.399 457.105 673.279 457.105C690.159 457.105 706.029 463.675 717.969 475.615C742.609 500.255 742.609 540.345 717.969 564.985C706.029 576.925 690.159 583.495 673.279 583.495ZM673.279 458.105C656.669 458.105 641.049 464.575 629.299 476.325C605.049 500.575 605.049 540.035 629.299 564.285C641.049 576.035 656.669 582.505 673.279 582.505C689.889 582.505 705.509 576.035 717.259 564.285C741.509 540.035 741.509 500.575 717.259 476.325C705.509 464.575 689.889 458.105 673.279 458.105ZM673.279 575.635C658.499 575.635 644.599 569.875 634.149 559.425C612.569 537.845 612.569 502.745 634.149 481.165C655.719 459.595 690.829 459.585 712.409 481.165C733.989 502.745 733.989 537.845 712.409 559.425C701.959 569.875 688.059 575.635 673.279 575.635ZM673.279 465.985C659.369 465.985 645.449 471.285 634.859 481.875C613.679 503.065 613.679 537.535 634.859 558.715C645.119 568.975 658.769 574.635 673.279 574.635C687.789 574.635 701.439 568.985 711.699 558.715C732.879 537.535 732.879 503.055 711.699 481.875C701.109 471.285 687.189 465.985 673.279 465.985Z" fill="#FB2938"/>
<path d="M727.299 514.954C735.689 514.954 742.489 508.153 742.489 499.764C742.489 491.375 735.689 484.574 727.299 484.574C718.91 484.574 712.109 491.375 712.109 499.764C712.109 508.153 718.91 514.954 727.299 514.954Z" fill="white"/>
<path d="M727.299 515.444C723.279 515.444 719.259 513.914 716.209 510.854C710.089 504.734 710.089 494.784 716.209 488.664C722.329 482.544 732.279 482.544 738.399 488.664C744.519 494.784 744.519 504.734 738.399 510.854C735.339 513.914 731.319 515.444 727.309 515.444H727.299ZM727.299 485.084C723.539 485.084 719.779 486.514 716.909 489.374C711.179 495.104 711.179 504.424 716.909 510.144C722.639 515.864 731.959 515.874 737.679 510.144C743.399 504.414 743.409 495.094 737.679 489.374C734.819 486.514 731.059 485.084 727.289 485.084H727.299Z" fill="#FB2938"/>
<path d="M618.03 558.066C626.419 558.066 633.22 551.265 633.22 542.876C633.22 534.486 626.419 527.686 618.03 527.686C609.641 527.686 602.84 534.486 602.84 542.876C602.84 551.265 609.641 558.066 618.03 558.066Z" fill="white"/>
<path d="M618.03 558.556C614.01 558.556 609.99 557.026 606.94 553.966C600.82 547.846 600.82 537.896 606.94 531.776C613.06 525.656 623.01 525.656 629.13 531.776C632.09 534.736 633.73 538.676 633.73 542.866C633.73 547.056 632.1 550.996 629.13 553.956C626.07 557.016 622.05 558.546 618.04 558.546L618.03 558.556ZM618.03 528.196C614.27 528.196 610.51 529.626 607.64 532.486C601.91 538.216 601.91 547.536 607.64 553.256C613.37 558.976 622.69 558.986 628.41 553.256C631.18 550.486 632.71 546.796 632.71 542.866C632.71 538.936 631.18 535.256 628.41 532.476C625.64 529.696 621.79 528.186 618.02 528.186L618.03 528.196Z" fill="#FB2938"/>
<path d="M274.15 291.918C245.58 291.918 222.42 315.078 222.42 343.648C222.42 372.218 245.58 395.378 274.15 395.378C302.72 395.378 325.88 372.218 325.88 343.648C325.88 315.078 302.72 291.918 274.15 291.918ZM274.15 362.468C263.76 362.468 255.33 354.048 255.33 343.648C255.33 333.248 263.75 324.828 274.15 324.828C284.55 324.828 292.97 333.248 292.97 343.648C292.97 354.048 284.55 362.468 274.15 362.468Z" fill="#E84142"/>
<path d="M290.841 313.847C301.903 313.847 310.871 304.879 310.871 293.817C310.871 282.755 301.903 273.787 290.841 273.787C279.778 273.787 270.811 282.755 270.811 293.817C270.811 304.879 279.778 313.847 290.841 313.847Z" fill="white"/>
<path d="M290.841 314.347C279.521 314.347 270.311 305.137 270.311 293.817C270.311 282.497 279.521 273.287 290.841 273.287C302.161 273.287 311.371 282.497 311.371 293.817C311.371 305.137 302.161 314.347 290.841 314.347ZM290.841 274.297C280.071 274.297 271.311 283.057 271.311 293.827C271.311 304.597 280.071 313.357 290.841 313.357C301.611 313.357 310.371 304.597 310.371 293.827C310.371 283.057 301.611 274.297 290.841 274.297Z" fill="#FB2938"/>
<path d="M260.081 412.548C271.143 412.548 280.111 403.581 280.111 392.518C280.111 381.456 271.143 372.488 260.081 372.488C249.019 372.488 240.051 381.456 240.051 392.518C240.051 403.581 249.019 412.548 260.081 412.548Z" fill="white"/>
<path d="M260.081 413.048C248.761 413.048 239.551 403.838 239.551 392.518C239.551 381.198 248.761 371.988 260.081 371.988C271.401 371.988 280.611 381.198 280.611 392.518C280.611 403.838 271.401 413.048 260.081 413.048ZM260.081 372.998C249.311 372.998 240.551 381.758 240.551 392.528C240.551 403.298 249.311 412.058 260.081 412.058C270.851 412.058 279.611 403.298 279.611 392.528C279.611 381.758 270.851 372.998 260.081 372.998Z" fill="#FB2938"/>
<path d="M96.7701 374.877C68.2001 374.877 45.04 398.037 45.04 426.607C45.04 455.177 68.2001 478.337 96.7701 478.337C125.34 478.337 148.5 455.177 148.5 426.607C148.5 398.037 125.34 374.877 96.7701 374.877ZM96.7701 445.427C86.3801 445.427 77.95 437.007 77.95 426.607C77.95 416.207 86.37 407.787 96.7701 407.787C107.17 407.787 115.59 416.207 115.59 426.607C115.59 437.007 107.17 445.427 96.7701 445.427Z" fill="#E84142"/>
<path d="M113.46 396.818C124.522 396.818 133.49 387.85 133.49 376.788C133.49 365.726 124.522 356.758 113.46 356.758C102.397 356.758 93.4297 365.726 93.4297 376.788C93.4297 387.85 102.397 396.818 113.46 396.818Z" fill="white"/>
<path d="M113.46 397.318C102.14 397.318 92.9297 388.108 92.9297 376.788C92.9297 365.468 102.14 356.258 113.46 356.258C124.78 356.258 133.99 365.468 133.99 376.788C133.99 388.108 124.78 397.318 113.46 397.318ZM113.46 357.268C102.69 357.268 93.9297 366.028 93.9297 376.798C93.9297 387.568 102.69 396.328 113.46 396.328C124.23 396.328 132.99 387.568 132.99 376.798C132.99 366.028 124.23 357.268 113.46 357.268Z" fill="#FB2938"/>
<path d="M82.7097 495.517C93.772 495.517 102.74 486.549 102.74 475.487C102.74 464.425 93.772 455.457 82.7097 455.457C71.6474 455.457 62.6797 464.425 62.6797 475.487C62.6797 486.549 71.6474 495.517 82.7097 495.517Z" fill="white"/>
<path d="M82.7097 496.017C71.3897 496.017 62.1797 486.807 62.1797 475.487C62.1797 464.167 71.3897 454.957 82.7097 454.957C94.0297 454.957 103.24 464.167 103.24 475.487C103.24 486.807 94.0297 496.017 82.7097 496.017ZM82.7097 455.967C71.9397 455.967 63.1797 464.727 63.1797 475.497C63.1797 486.267 71.9397 495.027 82.7097 495.027C93.4797 495.027 102.24 486.267 102.24 475.497C102.24 464.727 93.4797 455.967 82.7097 455.967Z" fill="#FB2938"/>
<path d="M249.27 65.0078C219.2 37.0678 172.17 38.7878 144.23 68.8578C116.29 98.9278 118.01 145.958 148.08 173.898C178.15 201.838 225.18 200.118 253.12 170.048C281.06 139.978 279.34 92.9478 249.27 65.0078ZM180.27 139.258C169.33 129.098 168.71 111.988 178.87 101.048C189.03 90.1078 206.14 89.4878 217.08 99.6478C228.02 109.808 228.64 126.918 218.48 137.858C208.32 148.798 191.21 149.418 180.27 139.258Z" fill="#E84142"/>
<path d="M264.971 112.099C280.86 112.099 293.741 99.2178 293.741 83.3286C293.741 67.4394 280.86 54.5586 264.971 54.5586C249.082 54.5586 236.201 67.4394 236.201 83.3286C236.201 99.2178 249.082 112.099 264.971 112.099Z" fill="white"/>
<path d="M264.941 112.608C257.531 112.608 250.501 109.848 245.041 104.778C233.221 93.788 232.541 75.238 243.521 63.408C254.511 51.588 273.061 50.908 284.891 61.888C296.711 72.878 297.391 91.428 286.411 103.258L286.041 102.918L286.411 103.258C281.091 108.988 273.851 112.298 266.041 112.588C265.671 112.598 265.311 112.608 264.941 112.608ZM264.981 55.078C257.391 55.078 249.821 58.108 244.261 64.088C233.651 75.508 234.311 93.428 245.721 104.038C251.251 109.178 258.461 111.858 266.001 111.578C273.551 111.298 280.531 108.098 285.671 102.568C296.281 91.148 295.631 73.228 284.211 62.618C278.781 57.568 271.871 55.068 264.971 55.068L264.981 55.078Z" fill="#FB2938"/>
<path d="M136.081 185.897C151.97 185.897 164.851 173.017 164.851 157.127C164.851 141.238 151.97 128.357 136.081 128.357C120.191 128.357 107.311 141.238 107.311 157.127C107.311 173.017 120.191 185.897 136.081 185.897Z" fill="white"/>
<path d="M136.05 186.397C128.64 186.397 121.61 183.637 116.15 178.567C110.42 173.247 107.11 166.007 106.82 158.197C106.53 150.387 109.31 142.927 114.63 137.197C119.95 131.467 127.19 128.157 135 127.867C142.81 127.587 150.27 130.357 156 135.677C167.82 146.667 168.5 165.217 157.52 177.047C152.2 182.777 144.96 186.087 137.15 186.377C136.78 186.387 136.42 186.397 136.05 186.397ZM136.1 128.857C135.75 128.857 135.39 128.857 135.04 128.877C127.49 129.157 120.51 132.357 115.37 137.887C110.23 143.417 107.55 150.617 107.83 158.167C108.11 165.717 111.31 172.697 116.84 177.837C122.37 182.977 129.58 185.667 137.12 185.377C144.67 185.097 151.65 181.897 156.79 176.367C161.93 170.837 164.61 163.637 164.33 156.087C164.05 148.537 160.86 141.557 155.32 136.417C150.05 131.517 143.26 128.857 136.1 128.857Z" fill="#FB2938"/>
<path d="M837.669 154.646C807.599 126.706 760.569 128.426 732.629 158.496C704.689 188.566 706.409 235.596 736.479 263.536C766.549 291.476 813.579 289.756 841.519 259.686C869.459 229.616 867.739 182.586 837.669 154.646ZM768.669 228.896C757.729 218.736 757.109 201.626 767.269 190.686C777.429 179.746 794.539 179.126 805.479 189.286C816.419 199.446 817.039 216.556 806.879 227.496C796.719 238.436 779.609 239.056 768.669 228.896Z" fill="#E84142"/>
<path d="M853.368 201.747C869.257 201.747 882.138 188.866 882.138 172.977C882.138 157.088 869.257 144.207 853.368 144.207C837.478 144.207 824.598 157.088 824.598 172.977C824.598 188.866 837.478 201.747 853.368 201.747Z" fill="white"/>
<path d="M853.339 202.246C845.929 202.246 838.899 199.486 833.439 194.416C827.709 189.096 824.398 181.856 824.108 174.046C823.818 166.236 826.598 158.776 831.918 153.046C837.238 147.316 844.478 144.006 852.288 143.716C860.098 143.426 867.558 146.206 873.288 151.526C879.018 156.846 882.329 164.086 882.619 171.896C882.909 179.706 880.129 187.166 874.809 192.896C869.489 198.626 862.249 201.936 854.439 202.226C854.069 202.236 853.709 202.246 853.339 202.246ZM853.389 144.706C853.039 144.706 852.679 144.706 852.329 144.726C844.779 145.006 837.798 148.206 832.658 153.736C827.518 159.266 824.839 166.466 825.119 174.016C825.399 181.566 828.589 188.546 834.129 193.686C839.659 198.826 846.858 201.506 854.408 201.226C861.958 200.946 868.938 197.746 874.078 192.216C879.218 186.686 881.899 179.486 881.619 171.936C881.339 164.386 878.148 157.406 872.608 152.266C867.338 147.366 860.549 144.706 853.389 144.706Z" fill="#FB2938"/>
<path d="M724.479 275.536C740.368 275.536 753.249 262.655 753.249 246.766C753.249 230.877 740.368 217.996 724.479 217.996C708.59 217.996 695.709 230.877 695.709 246.766C695.709 262.655 708.59 275.536 724.479 275.536Z" fill="white"/>
<path d="M724.469 276.026C717.329 276.026 710.179 273.436 704.549 268.206C692.729 257.216 692.049 238.666 703.039 226.836C708.359 221.106 715.599 217.796 723.409 217.506C731.219 217.226 738.679 219.996 744.409 225.316C756.229 236.306 756.909 254.856 745.929 266.686C740.169 272.886 732.339 276.016 724.479 276.016L724.469 276.026ZM724.509 218.496C724.159 218.496 723.799 218.496 723.449 218.516C715.899 218.796 708.919 221.996 703.779 227.526C693.169 238.946 693.819 256.866 705.239 267.476C716.659 278.086 734.579 277.426 745.189 266.016C755.799 254.596 755.139 236.676 743.729 226.066C738.459 221.166 731.669 218.506 724.509 218.506V218.496Z" fill="#FB2938"/>
<path d="M978.11 359.566C993.16 321.376 974.41 278.216 936.23 263.166C898.04 248.116 854.88 266.866 839.83 305.046C824.78 343.236 843.53 386.396 881.71 401.446C919.89 416.496 963.06 397.746 978.11 359.566ZM883.82 322.396C889.3 308.506 904.99 301.686 918.88 307.166C932.77 312.646 939.59 328.336 934.11 342.226C928.63 356.116 912.94 362.936 899.05 357.456C885.16 351.976 878.34 336.286 883.82 322.396Z" fill="#E84142"/>
<path d="M966.768 409.634C982.657 409.634 995.538 396.753 995.538 380.864C995.538 364.975 982.657 352.094 966.768 352.094C950.879 352.094 937.998 364.975 937.998 380.864C937.998 396.753 950.879 409.634 966.768 409.634Z" fill="white"/>
<path d="M966.779 410.155C963.149 410.155 959.519 409.475 956.039 408.095C941.029 402.175 933.629 385.145 939.549 370.125C945.469 355.115 962.499 347.715 977.519 353.635C984.789 356.505 990.519 362.035 993.629 369.205C996.739 376.375 996.879 384.335 994.009 391.605C991.139 398.875 985.609 404.595 978.439 407.715C974.699 409.345 970.739 410.155 966.779 410.155ZM956.399 407.165C963.429 409.935 971.109 409.805 978.029 406.795C984.959 403.785 990.299 398.255 993.069 391.235C995.839 384.215 995.709 376.525 992.699 369.605C989.689 362.685 984.159 357.335 977.139 354.575C962.639 348.855 946.189 356.005 940.469 370.505C934.749 385.005 941.899 401.455 956.399 407.175V407.165Z" fill="#FB2938"/>
<path d="M851.059 316.524C866.948 316.524 879.829 303.644 879.829 287.754C879.829 271.865 866.948 258.984 851.059 258.984C835.17 258.984 822.289 271.865 822.289 287.754C822.289 303.644 835.17 316.524 851.059 316.524Z" fill="white"/>
<path d="M851.03 317.025C847.47 317.025 843.84 316.365 840.33 314.985C833.06 312.115 827.33 306.585 824.22 299.415C821.1 292.245 820.97 284.285 823.84 277.015C826.71 269.745 832.24 264.025 839.41 260.905C846.58 257.785 854.54 257.655 861.81 260.525C869.08 263.395 874.81 268.925 877.92 276.095C881.03 283.265 881.17 291.225 878.3 298.495C873.76 309.995 862.71 317.035 851.04 317.035L851.03 317.025ZM851.06 259.465C847.23 259.465 843.41 260.255 839.8 261.825C832.87 264.835 827.53 270.365 824.76 277.385C821.99 284.405 822.12 292.095 825.13 299.015C828.14 305.935 833.67 311.285 840.69 314.045C855.19 319.765 871.64 312.615 877.36 298.115C880.13 291.095 880 283.405 876.99 276.485C873.98 269.565 868.45 264.215 861.43 261.455C858.07 260.135 854.56 259.465 851.05 259.465H851.06Z" fill="#FB2938"/>
<path d="M1092.19 509.947C1096.38 499.327 1091.16 487.317 1080.54 483.127C1069.92 478.937 1057.91 484.157 1053.72 494.777C1049.53 505.397 1054.75 517.407 1065.37 521.597C1075.99 525.787 1088 520.567 1092.19 509.947ZM1065.96 499.607C1067.48 495.747 1071.85 493.847 1075.71 495.367C1079.57 496.887 1081.47 501.257 1079.95 505.117C1078.43 508.977 1074.06 510.877 1070.2 509.357C1066.34 507.837 1064.44 503.467 1065.96 499.607Z" fill="#E84142"/>
<path d="M1089.04 523.877C1093.46 523.877 1097.04 520.295 1097.04 515.877C1097.04 511.459 1093.46 507.877 1089.04 507.877C1084.62 507.877 1081.04 511.459 1081.04 515.877C1081.04 520.295 1084.62 523.877 1089.04 523.877Z" fill="white"/>
<path d="M1089.04 524.027C1088.03 524.027 1087.02 523.837 1086.05 523.457C1081.87 521.807 1079.82 517.077 1081.46 512.897C1083.11 508.717 1087.84 506.667 1092.02 508.307C1094.04 509.107 1095.63 510.647 1096.5 512.637C1097.37 514.627 1097.4 516.847 1096.61 518.867C1095.81 520.887 1094.27 522.477 1092.28 523.347C1091.24 523.797 1090.14 524.027 1089.04 524.027ZM1086.15 523.197C1088.1 523.967 1090.24 523.927 1092.17 523.097C1094.1 522.257 1095.58 520.727 1096.35 518.767C1097.12 516.807 1097.08 514.677 1096.25 512.747C1095.42 510.817 1093.88 509.337 1091.92 508.567C1087.89 506.977 1083.31 508.967 1081.72 512.997C1080.13 517.027 1082.12 521.607 1086.15 523.197Z" fill="#FB2938"/>
<path d="M1056.85 497.977C1061.27 497.977 1064.85 494.395 1064.85 489.977C1064.85 485.558 1061.27 481.977 1056.85 481.977C1052.43 481.977 1048.85 485.558 1048.85 489.977C1048.85 494.395 1052.43 497.977 1056.85 497.977Z" fill="white"/>
<path d="M1056.84 498.117C1055.85 498.117 1054.84 497.937 1053.86 497.547C1051.84 496.747 1050.25 495.207 1049.38 493.217C1048.51 491.227 1048.48 489.007 1049.27 486.987C1050.07 484.967 1051.61 483.377 1053.6 482.507C1055.6 481.637 1057.81 481.607 1059.83 482.397C1061.85 483.197 1063.44 484.737 1064.31 486.727C1065.18 488.717 1065.21 490.937 1064.42 492.957C1063.16 496.157 1060.08 498.117 1056.84 498.117ZM1056.84 482.107C1055.78 482.107 1054.71 482.327 1053.71 482.767C1051.78 483.607 1050.3 485.137 1049.53 487.097C1048.76 489.047 1048.8 491.187 1049.63 493.117C1050.46 495.047 1052 496.527 1053.96 497.297C1057.99 498.887 1062.57 496.897 1064.16 492.867C1064.93 490.917 1064.89 488.777 1064.06 486.847C1063.23 484.917 1061.69 483.437 1059.73 482.667C1058.8 482.297 1057.82 482.117 1056.84 482.117V482.107Z" fill="#FB2938"/>
<path d="M1132.6 252.048C1139.36 234.918 1130.94 215.548 1113.81 208.788C1096.68 202.028 1077.31 210.448 1070.55 227.578C1063.79 244.708 1072.21 264.078 1089.34 270.838C1106.47 277.598 1125.84 269.178 1132.6 252.048ZM1090.29 235.368C1092.75 229.138 1099.79 226.078 1106.02 228.528C1112.25 230.988 1115.31 238.028 1112.86 244.258C1110.4 250.488 1103.36 253.548 1097.13 251.098C1090.9 248.638 1087.84 241.598 1090.29 235.368Z" fill="#E84142"/>
<path d="M1127.51 274.515C1134.64 274.515 1140.42 268.735 1140.42 261.605C1140.42 254.475 1134.64 248.695 1127.51 248.695C1120.38 248.695 1114.6 254.475 1114.6 261.605C1114.6 268.735 1120.38 274.515 1127.51 274.515Z" fill="white"/>
<path d="M1127.51 274.747C1125.88 274.747 1124.25 274.437 1122.69 273.827C1115.95 271.167 1112.63 263.527 1115.29 256.787C1117.95 250.047 1125.59 246.727 1132.33 249.387C1135.59 250.677 1138.16 253.157 1139.56 256.367C1140.96 259.577 1141.02 263.157 1139.73 266.417C1138.44 269.677 1135.96 272.247 1132.75 273.647C1131.07 274.377 1129.3 274.747 1127.52 274.747H1127.51ZM1122.85 273.407C1126 274.647 1129.45 274.587 1132.56 273.237C1135.67 271.887 1138.06 269.407 1139.31 266.257C1140.55 263.107 1140.49 259.657 1139.14 256.547C1137.79 253.437 1135.31 251.047 1132.16 249.797C1125.65 247.227 1118.27 250.437 1115.71 256.947C1113.14 263.457 1116.35 270.837 1122.86 273.397L1122.85 273.407Z" fill="#FB2938"/>
<path d="M1075.59 232.738C1082.72 232.738 1088.5 226.958 1088.5 219.828C1088.5 212.698 1082.72 206.918 1075.59 206.918C1068.46 206.918 1062.68 212.698 1062.68 219.828C1062.68 226.958 1068.46 232.738 1075.59 232.738Z" fill="white"/>
<path d="M1075.58 232.959C1073.98 232.959 1072.35 232.669 1070.78 232.039C1067.52 230.749 1064.95 228.269 1063.55 225.059C1062.15 221.839 1062.09 218.269 1063.38 215.009C1064.67 211.749 1067.15 209.179 1070.36 207.779C1073.58 206.379 1077.15 206.319 1080.41 207.609C1083.67 208.899 1086.24 211.379 1087.64 214.589C1089.04 217.799 1089.1 221.379 1087.81 224.639C1085.78 229.799 1080.81 232.959 1075.58 232.959ZM1075.59 207.129C1073.87 207.129 1072.16 207.479 1070.54 208.189C1067.43 209.539 1065.04 212.019 1063.79 215.169C1062.55 218.319 1062.61 221.769 1063.96 224.879C1065.31 227.989 1067.79 230.379 1070.94 231.629C1077.45 234.199 1084.83 230.989 1087.39 224.479C1088.63 221.329 1088.57 217.879 1087.22 214.769C1085.87 211.659 1083.39 209.269 1080.24 208.019C1078.73 207.429 1077.16 207.129 1075.58 207.129H1075.59Z" fill="#FB2938"/>
<path d="M1039.68 317.415C1053.5 317.415 1064.71 306.209 1064.71 292.385C1064.71 278.562 1053.5 267.355 1039.68 267.355C1025.86 267.355 1014.65 278.562 1014.65 292.385C1014.65 306.209 1025.86 317.415 1039.68 317.415Z" fill="#E84142"/>
<path d="M460.551 505.016C464.743 505.016 468.141 501.618 468.141 497.426C468.141 493.234 464.743 489.836 460.551 489.836C456.359 489.836 452.961 493.234 452.961 497.426C452.961 501.618 456.359 505.016 460.551 505.016Z" fill="#E84142"/>
<path d="M463.779 555.407C467.971 555.407 471.369 552.008 471.369 547.817C471.369 543.625 467.971 540.227 463.779 540.227C459.588 540.227 456.189 543.625 456.189 547.817C456.189 552.008 459.588 555.407 463.779 555.407Z" fill="#E84142"/>
<path d="M101.54 542.717C105.732 542.717 109.13 539.319 109.13 535.127C109.13 530.935 105.732 527.537 101.54 527.537C97.3484 527.537 93.9502 530.935 93.9502 535.127C93.9502 539.319 97.3484 542.717 101.54 542.717Z" fill="#E84142"/>
<path d="M-6.70004 303.826C-2.5082 303.826 0.889954 300.428 0.889954 296.236C0.889954 292.045 -2.5082 288.646 -6.70004 288.646C-10.8919 288.646 -14.29 292.045 -14.29 296.236C-14.29 300.428 -10.8919 303.826 -6.70004 303.826Z" fill="#E84142"/>
<path d="M12.5202 158.216C25.1454 158.216 35.3802 147.981 35.3802 135.356C35.3802 122.731 25.1454 112.496 12.5202 112.496C-0.105073 112.496 -10.3398 122.731 -10.3398 135.356C-10.3398 147.981 -0.105073 158.216 12.5202 158.216Z" fill="#E84142"/>
<path d="M434.17 560.035C438.362 560.035 441.76 556.637 441.76 552.445C441.76 548.254 438.362 544.855 434.17 544.855C429.978 544.855 426.58 548.254 426.58 552.445C426.58 556.637 429.978 560.035 434.17 560.035Z" fill="#E84142"/>
<path d="M506.1 530.577C510.292 530.577 513.69 527.178 513.69 522.987C513.69 518.795 510.292 515.396 506.1 515.396C501.908 515.396 498.51 518.795 498.51 522.987C498.51 527.178 501.908 530.577 506.1 530.577Z" fill="#E84142"/>
<path d="M903.789 722.676C907.981 722.676 911.379 719.278 911.379 715.086C911.379 710.894 907.981 707.496 903.789 707.496C899.597 707.496 896.199 710.894 896.199 715.086C896.199 719.278 899.597 722.676 903.789 722.676Z" fill="#E84142"/>
<path d="M818.84 687.067C823.032 687.067 826.43 683.669 826.43 679.477C826.43 675.285 823.032 671.887 818.84 671.887C814.648 671.887 811.25 675.285 811.25 679.477C811.25 683.669 814.648 687.067 818.84 687.067Z" fill="#E84142"/>
<path d="M968.641 693.926C972.833 693.926 976.231 690.528 976.231 686.336C976.231 682.144 972.833 678.746 968.641 678.746C964.449 678.746 961.051 682.144 961.051 686.336C961.051 690.528 964.449 693.926 968.641 693.926Z" fill="#E84142"/>
<path d="M745.25 134.528C749.442 134.528 752.84 131.129 752.84 126.938C752.84 122.746 749.442 119.348 745.25 119.348C741.058 119.348 737.66 122.746 737.66 126.938C737.66 131.129 741.058 134.528 745.25 134.528Z" fill="#E84142"/>
<g filter="url(#filter0_d_175_877)">
<circle cx="593.5" cy="351.297" r="152.5" fill="#E94142"/>
</g>
<path d="M569.803 362.797L569.939 345.763H569.837L563.581 362.797H559.501L553.415 345.763H553.313L553.449 362.797H547.975V338.725H556.237L561.711 354.161H561.847L567.083 338.725H575.481V362.797H569.803ZM582.148 362.797V338.725H587.996V362.797H582.148ZM609.972 362.797L600.282 347.055H600.18L600.316 362.797H594.672V338.725H601.302L610.958 354.433H611.06L610.924 338.725H616.568V362.797H609.972ZM633.535 343.689V362.797H627.721V343.689H620.921V338.725H640.335V343.689H633.535Z" fill="white"/>
</g>
<defs>
<filter id="filter0_d_175_877" x="437" y="198.797" width="333" height="333" filterUnits="userSpaceOnUse" color-interpolation-filters="sRGB">
<feFlood flood-opacity="0" result="BackgroundImageFix"/>
<feColorMatrix in="SourceAlpha" type="matrix" values="0 0 0 0 0 0 0 0 0 0 0 0 0 0 0 0 0 0 127 0" result="hardAlpha"/>
<feOffset dx="10" dy="14"/>
<feGaussianBlur stdDeviation="7"/>
<feComposite in2="hardAlpha" operator="out"/>
<feColorMatrix type="matrix" values="0 0 0 0 0 0 0 0 0 0 0 0 0 0 0 0 0 0 0.08 0"/>
<feBlend mode="normal" in2="BackgroundImageFix" result="effect1_dropShadow_175_877"/>
<feBlend mode="normal" in="SourceGraphic" in2="effect1_dropShadow_175_877" result="shape"/>
</filter>
<clipPath id="clip0_175_877">
<rect width="1486.28" height="741.97" fill="white" transform="translate(-150 0.796875)"/>
</clipPath>
</defs>
</svg>
