<svg width="32" height="33" viewBox="0 0 32 33" fill="none" xmlns="http://www.w3.org/2000/svg">
<rect width="32" height="32" transform="translate(0 0.796875)" fill="white"/>
<path d="M26.3128 10.9169C25.6272 11.2291 24.8764 11.4121 24.1256 11.5306C24.4738 11.4767 24.9961 10.8415 25.2029 10.5832C25.5184 10.1956 25.7796 9.75418 25.9319 9.26971C25.9537 9.23741 25.9646 9.18358 25.9319 9.16205C25.8884 9.14052 25.8557 9.16205 25.8122 9.16205C24.9852 9.60345 24.1256 9.91567 23.2225 10.1418C23.1463 10.1633 23.0919 10.1418 23.0484 10.0987C22.9722 10.0126 22.9069 9.9372 22.8199 9.8726C22.439 9.54962 22.0256 9.30201 21.5685 9.10822C20.9592 8.8606 20.2954 8.76371 19.6426 8.80677C19.0006 8.84984 18.3803 9.02209 17.8145 9.31277C17.2487 9.60345 16.7482 10.0126 16.3456 10.5078C15.9321 11.0138 15.6274 11.6167 15.4642 12.2519C15.3118 12.8655 15.3227 13.4684 15.4206 14.0929C15.4315 14.2005 15.4206 14.2113 15.3336 14.2005C11.7754 13.673 8.82663 12.4134 6.42188 9.71111C6.31307 9.59269 6.25866 9.59269 6.17161 9.71111C5.12701 11.2614 5.62755 13.7591 6.94418 14.9864C7.11828 15.1479 7.30326 15.3094 7.48824 15.4601C7.42295 15.4709 6.54157 15.3848 5.76901 14.9864C5.66019 14.9218 5.61667 14.9541 5.60579 15.0726C5.60579 15.2448 5.60579 15.3955 5.63843 15.5786C5.83429 17.1504 6.94418 18.6146 8.45667 19.1852C8.63077 19.2605 8.83751 19.3251 9.02249 19.3574C8.67429 19.4328 8.32609 19.4866 7.3359 19.4112C7.21621 19.3897 7.1618 19.4435 7.21621 19.562C7.95613 21.5644 9.55567 22.1566 10.7635 22.5011C10.9267 22.5334 11.0899 22.5334 11.2423 22.5657C11.2423 22.5764 11.2205 22.5764 11.2096 22.598C10.807 23.2008 9.43598 23.6423 8.79399 23.8683C7.6297 24.2774 6.35659 24.4497 5.11613 24.3313C4.92027 24.299 4.87675 24.3097 4.82234 24.3313C4.76793 24.3636 4.82234 24.4066 4.87675 24.4605C5.12701 24.622 5.37728 24.7727 5.63843 24.9126C6.42188 25.3217 7.23797 25.6555 8.09759 25.8816C12.5154 27.0874 17.4772 26.2045 20.796 22.9425C23.3966 20.3802 24.3106 16.8597 24.3106 13.3285C24.3106 13.1885 24.4738 13.1132 24.5718 13.0378C25.2464 12.5318 25.7905 11.9289 26.291 11.2614C26.3998 11.1107 26.3998 10.9707 26.3998 10.9169V10.8954C26.3998 10.8415 26.3998 10.8523 26.3236 10.8954L26.3128 10.9169Z" fill="black"/>
</svg>
